<mxfile host="app.diagrams.net" modified="2021-07-17T01:12:11.781Z" agent="5.0 (Windows)" etag="bDkisWKV7guWKVQA4mB8" version="14.8.5" type="github">
  <diagram id="KxuiyelQ4g_LW83yEsCo" name="Page-1">
    <mxGraphModel dx="981" dy="526" grid="1" gridSize="10" guides="1" tooltips="1" connect="1" arrows="1" fold="1" page="1" pageScale="1" pageWidth="4681" pageHeight="3300" math="0" shadow="0">
      <root>
        <mxCell id="0" />
        <mxCell id="1" parent="0" />
        <mxCell id="44AiBCDxBOzTBdy34bFM-1" value="" style="rounded=0;whiteSpace=wrap;html=1;" parent="1" vertex="1">
          <mxGeometry x="149" y="117.5" width="40" height="160" as="geometry" />
        </mxCell>
        <mxCell id="44AiBCDxBOzTBdy34bFM-2" value="" style="rounded=0;whiteSpace=wrap;html=1;" parent="1" vertex="1">
          <mxGeometry x="149" y="157.5" width="40" height="40" as="geometry" />
        </mxCell>
        <mxCell id="44AiBCDxBOzTBdy34bFM-3" value="" style="rounded=0;whiteSpace=wrap;html=1;" parent="1" vertex="1">
          <mxGeometry x="149" y="197.5" width="40" height="40" as="geometry" />
        </mxCell>
        <mxCell id="44AiBCDxBOzTBdy34bFM-4" value="" style="rounded=0;whiteSpace=wrap;html=1;" parent="1" vertex="1">
          <mxGeometry x="149" y="237.5" width="40" height="40" as="geometry" />
        </mxCell>
        <mxCell id="44AiBCDxBOzTBdy34bFM-5" value="" style="rounded=0;whiteSpace=wrap;html=1;fillColor=#ffe6cc;strokeColor=#d79b00;" parent="1" vertex="1">
          <mxGeometry x="149" y="117.5" width="40" height="40" as="geometry" />
        </mxCell>
        <mxCell id="44AiBCDxBOzTBdy34bFM-6" value="&lt;div&gt;A&lt;/div&gt;" style="text;html=1;strokeColor=none;fillColor=none;align=center;verticalAlign=middle;whiteSpace=wrap;rounded=0;" parent="1" vertex="1">
          <mxGeometry x="149" y="127.5" width="40" height="20" as="geometry" />
        </mxCell>
        <mxCell id="44AiBCDxBOzTBdy34bFM-7" value="C" style="text;html=1;strokeColor=none;fillColor=none;align=center;verticalAlign=middle;whiteSpace=wrap;rounded=0;" parent="1" vertex="1">
          <mxGeometry x="149" y="167.5" width="40" height="20" as="geometry" />
        </mxCell>
        <mxCell id="44AiBCDxBOzTBdy34bFM-8" value="G" style="text;html=1;strokeColor=none;fillColor=none;align=center;verticalAlign=middle;whiteSpace=wrap;rounded=0;" parent="1" vertex="1">
          <mxGeometry x="149" y="207.5" width="40" height="20" as="geometry" />
        </mxCell>
        <mxCell id="44AiBCDxBOzTBdy34bFM-9" value="T" style="text;html=1;strokeColor=none;fillColor=none;align=center;verticalAlign=middle;whiteSpace=wrap;rounded=0;" parent="1" vertex="1">
          <mxGeometry x="149" y="247.5" width="40" height="20" as="geometry" />
        </mxCell>
        <mxCell id="44AiBCDxBOzTBdy34bFM-11" value="" style="rounded=0;whiteSpace=wrap;html=1;" parent="1" vertex="1">
          <mxGeometry x="189" y="117.5" width="40" height="160" as="geometry" />
        </mxCell>
        <mxCell id="44AiBCDxBOzTBdy34bFM-12" value="" style="rounded=0;whiteSpace=wrap;html=1;fillColor=#dae8fc;strokeColor=#6c8ebf;" parent="1" vertex="1">
          <mxGeometry x="189" y="157.5" width="40" height="40" as="geometry" />
        </mxCell>
        <mxCell id="44AiBCDxBOzTBdy34bFM-13" value="" style="rounded=0;whiteSpace=wrap;html=1;" parent="1" vertex="1">
          <mxGeometry x="189" y="197.5" width="40" height="40" as="geometry" />
        </mxCell>
        <mxCell id="44AiBCDxBOzTBdy34bFM-14" value="" style="rounded=0;whiteSpace=wrap;html=1;" parent="1" vertex="1">
          <mxGeometry x="189" y="237.5" width="40" height="40" as="geometry" />
        </mxCell>
        <mxCell id="44AiBCDxBOzTBdy34bFM-15" value="" style="rounded=0;whiteSpace=wrap;html=1;" parent="1" vertex="1">
          <mxGeometry x="189" y="117.5" width="40" height="40" as="geometry" />
        </mxCell>
        <mxCell id="44AiBCDxBOzTBdy34bFM-16" value="&lt;div&gt;A&lt;/div&gt;" style="text;html=1;strokeColor=none;fillColor=none;align=center;verticalAlign=middle;whiteSpace=wrap;rounded=0;" parent="1" vertex="1">
          <mxGeometry x="189" y="127.5" width="40" height="20" as="geometry" />
        </mxCell>
        <mxCell id="44AiBCDxBOzTBdy34bFM-17" value="C" style="text;html=1;strokeColor=none;fillColor=none;align=center;verticalAlign=middle;whiteSpace=wrap;rounded=0;" parent="1" vertex="1">
          <mxGeometry x="189" y="167.5" width="40" height="20" as="geometry" />
        </mxCell>
        <mxCell id="44AiBCDxBOzTBdy34bFM-18" value="G" style="text;html=1;strokeColor=none;fillColor=none;align=center;verticalAlign=middle;whiteSpace=wrap;rounded=0;" parent="1" vertex="1">
          <mxGeometry x="189" y="207.5" width="40" height="20" as="geometry" />
        </mxCell>
        <mxCell id="44AiBCDxBOzTBdy34bFM-19" value="T" style="text;html=1;strokeColor=none;fillColor=none;align=center;verticalAlign=middle;whiteSpace=wrap;rounded=0;" parent="1" vertex="1">
          <mxGeometry x="189" y="247.5" width="40" height="20" as="geometry" />
        </mxCell>
        <mxCell id="44AiBCDxBOzTBdy34bFM-20" value="" style="rounded=0;whiteSpace=wrap;html=1;" parent="1" vertex="1">
          <mxGeometry x="189" y="117.5" width="40" height="160" as="geometry" />
        </mxCell>
        <mxCell id="44AiBCDxBOzTBdy34bFM-21" value="" style="rounded=0;whiteSpace=wrap;html=1;fillColor=#dae8fc;strokeColor=#6c8ebf;" parent="1" vertex="1">
          <mxGeometry x="189" y="157.5" width="40" height="40" as="geometry" />
        </mxCell>
        <mxCell id="44AiBCDxBOzTBdy34bFM-22" value="" style="rounded=0;whiteSpace=wrap;html=1;" parent="1" vertex="1">
          <mxGeometry x="189" y="197.5" width="40" height="40" as="geometry" />
        </mxCell>
        <mxCell id="44AiBCDxBOzTBdy34bFM-23" value="" style="rounded=0;whiteSpace=wrap;html=1;" parent="1" vertex="1">
          <mxGeometry x="189" y="237.5" width="40" height="40" as="geometry" />
        </mxCell>
        <mxCell id="44AiBCDxBOzTBdy34bFM-24" value="" style="rounded=0;whiteSpace=wrap;html=1;" parent="1" vertex="1">
          <mxGeometry x="189" y="117.5" width="40" height="40" as="geometry" />
        </mxCell>
        <mxCell id="44AiBCDxBOzTBdy34bFM-25" value="&lt;div&gt;A&lt;/div&gt;" style="text;html=1;strokeColor=none;fillColor=none;align=center;verticalAlign=middle;whiteSpace=wrap;rounded=0;" parent="1" vertex="1">
          <mxGeometry x="189" y="127.5" width="40" height="20" as="geometry" />
        </mxCell>
        <mxCell id="44AiBCDxBOzTBdy34bFM-26" value="C" style="text;html=1;strokeColor=none;fillColor=none;align=center;verticalAlign=middle;whiteSpace=wrap;rounded=0;" parent="1" vertex="1">
          <mxGeometry x="189" y="167.5" width="40" height="20" as="geometry" />
        </mxCell>
        <mxCell id="44AiBCDxBOzTBdy34bFM-27" value="G" style="text;html=1;strokeColor=none;fillColor=none;align=center;verticalAlign=middle;whiteSpace=wrap;rounded=0;" parent="1" vertex="1">
          <mxGeometry x="189" y="207.5" width="40" height="20" as="geometry" />
        </mxCell>
        <mxCell id="44AiBCDxBOzTBdy34bFM-28" value="T" style="text;html=1;strokeColor=none;fillColor=none;align=center;verticalAlign=middle;whiteSpace=wrap;rounded=0;" parent="1" vertex="1">
          <mxGeometry x="189" y="247.5" width="40" height="20" as="geometry" />
        </mxCell>
        <mxCell id="44AiBCDxBOzTBdy34bFM-29" value="" style="rounded=0;whiteSpace=wrap;html=1;" parent="1" vertex="1">
          <mxGeometry x="229" y="117.5" width="40" height="160" as="geometry" />
        </mxCell>
        <mxCell id="44AiBCDxBOzTBdy34bFM-30" value="" style="rounded=0;whiteSpace=wrap;html=1;fillColor=#dae8fc;strokeColor=#6c8ebf;" parent="1" vertex="1">
          <mxGeometry x="229" y="157.5" width="40" height="40" as="geometry" />
        </mxCell>
        <mxCell id="44AiBCDxBOzTBdy34bFM-31" value="" style="rounded=0;whiteSpace=wrap;html=1;" parent="1" vertex="1">
          <mxGeometry x="229" y="197.5" width="40" height="40" as="geometry" />
        </mxCell>
        <mxCell id="44AiBCDxBOzTBdy34bFM-32" value="" style="rounded=0;whiteSpace=wrap;html=1;" parent="1" vertex="1">
          <mxGeometry x="229" y="237.5" width="40" height="40" as="geometry" />
        </mxCell>
        <mxCell id="44AiBCDxBOzTBdy34bFM-33" value="" style="rounded=0;whiteSpace=wrap;html=1;" parent="1" vertex="1">
          <mxGeometry x="229" y="117.5" width="40" height="40" as="geometry" />
        </mxCell>
        <mxCell id="44AiBCDxBOzTBdy34bFM-34" value="&lt;div&gt;A&lt;/div&gt;" style="text;html=1;strokeColor=none;fillColor=none;align=center;verticalAlign=middle;whiteSpace=wrap;rounded=0;" parent="1" vertex="1">
          <mxGeometry x="229" y="127.5" width="40" height="20" as="geometry" />
        </mxCell>
        <mxCell id="44AiBCDxBOzTBdy34bFM-35" value="C" style="text;html=1;strokeColor=none;fillColor=none;align=center;verticalAlign=middle;whiteSpace=wrap;rounded=0;" parent="1" vertex="1">
          <mxGeometry x="229" y="167.5" width="40" height="20" as="geometry" />
        </mxCell>
        <mxCell id="44AiBCDxBOzTBdy34bFM-36" value="G" style="text;html=1;strokeColor=none;fillColor=none;align=center;verticalAlign=middle;whiteSpace=wrap;rounded=0;" parent="1" vertex="1">
          <mxGeometry x="229" y="207.5" width="40" height="20" as="geometry" />
        </mxCell>
        <mxCell id="44AiBCDxBOzTBdy34bFM-37" value="T" style="text;html=1;strokeColor=none;fillColor=none;align=center;verticalAlign=middle;whiteSpace=wrap;rounded=0;" parent="1" vertex="1">
          <mxGeometry x="229" y="247.5" width="40" height="20" as="geometry" />
        </mxCell>
        <mxCell id="44AiBCDxBOzTBdy34bFM-38" value="" style="rounded=0;whiteSpace=wrap;html=1;" parent="1" vertex="1">
          <mxGeometry x="229" y="117.5" width="40" height="160" as="geometry" />
        </mxCell>
        <mxCell id="44AiBCDxBOzTBdy34bFM-39" value="" style="rounded=0;whiteSpace=wrap;html=1;" parent="1" vertex="1">
          <mxGeometry x="229" y="157.5" width="40" height="40" as="geometry" />
        </mxCell>
        <mxCell id="44AiBCDxBOzTBdy34bFM-40" value="" style="rounded=0;whiteSpace=wrap;html=1;fillColor=#f8cecc;strokeColor=#b85450;" parent="1" vertex="1">
          <mxGeometry x="229" y="197.5" width="40" height="40" as="geometry" />
        </mxCell>
        <mxCell id="44AiBCDxBOzTBdy34bFM-41" value="" style="rounded=0;whiteSpace=wrap;html=1;" parent="1" vertex="1">
          <mxGeometry x="229" y="237.5" width="40" height="40" as="geometry" />
        </mxCell>
        <mxCell id="44AiBCDxBOzTBdy34bFM-42" value="" style="rounded=0;whiteSpace=wrap;html=1;" parent="1" vertex="1">
          <mxGeometry x="229" y="117.5" width="40" height="40" as="geometry" />
        </mxCell>
        <mxCell id="44AiBCDxBOzTBdy34bFM-43" value="&lt;div&gt;A&lt;/div&gt;" style="text;html=1;strokeColor=none;fillColor=none;align=center;verticalAlign=middle;whiteSpace=wrap;rounded=0;" parent="1" vertex="1">
          <mxGeometry x="229" y="127.5" width="40" height="20" as="geometry" />
        </mxCell>
        <mxCell id="44AiBCDxBOzTBdy34bFM-44" value="C" style="text;html=1;strokeColor=none;fillColor=none;align=center;verticalAlign=middle;whiteSpace=wrap;rounded=0;" parent="1" vertex="1">
          <mxGeometry x="229" y="167.5" width="40" height="20" as="geometry" />
        </mxCell>
        <mxCell id="44AiBCDxBOzTBdy34bFM-45" value="G" style="text;html=1;strokeColor=none;fillColor=none;align=center;verticalAlign=middle;whiteSpace=wrap;rounded=0;" parent="1" vertex="1">
          <mxGeometry x="229" y="207.5" width="40" height="20" as="geometry" />
        </mxCell>
        <mxCell id="44AiBCDxBOzTBdy34bFM-46" value="T" style="text;html=1;strokeColor=none;fillColor=none;align=center;verticalAlign=middle;whiteSpace=wrap;rounded=0;" parent="1" vertex="1">
          <mxGeometry x="229" y="247.5" width="40" height="20" as="geometry" />
        </mxCell>
        <mxCell id="44AiBCDxBOzTBdy34bFM-47" value="" style="rounded=0;whiteSpace=wrap;html=1;" parent="1" vertex="1">
          <mxGeometry x="269" y="117.5" width="40" height="160" as="geometry" />
        </mxCell>
        <mxCell id="44AiBCDxBOzTBdy34bFM-48" value="" style="rounded=0;whiteSpace=wrap;html=1;fillColor=#dae8fc;strokeColor=#6c8ebf;" parent="1" vertex="1">
          <mxGeometry x="269" y="157.5" width="40" height="40" as="geometry" />
        </mxCell>
        <mxCell id="44AiBCDxBOzTBdy34bFM-49" value="" style="rounded=0;whiteSpace=wrap;html=1;" parent="1" vertex="1">
          <mxGeometry x="269" y="197.5" width="40" height="40" as="geometry" />
        </mxCell>
        <mxCell id="44AiBCDxBOzTBdy34bFM-50" value="" style="rounded=0;whiteSpace=wrap;html=1;" parent="1" vertex="1">
          <mxGeometry x="269" y="237.5" width="40" height="40" as="geometry" />
        </mxCell>
        <mxCell id="44AiBCDxBOzTBdy34bFM-51" value="" style="rounded=0;whiteSpace=wrap;html=1;" parent="1" vertex="1">
          <mxGeometry x="269" y="117.5" width="40" height="40" as="geometry" />
        </mxCell>
        <mxCell id="44AiBCDxBOzTBdy34bFM-52" value="&lt;div&gt;A&lt;/div&gt;" style="text;html=1;strokeColor=none;fillColor=none;align=center;verticalAlign=middle;whiteSpace=wrap;rounded=0;" parent="1" vertex="1">
          <mxGeometry x="269" y="127.5" width="40" height="20" as="geometry" />
        </mxCell>
        <mxCell id="44AiBCDxBOzTBdy34bFM-53" value="C" style="text;html=1;strokeColor=none;fillColor=none;align=center;verticalAlign=middle;whiteSpace=wrap;rounded=0;" parent="1" vertex="1">
          <mxGeometry x="269" y="167.5" width="40" height="20" as="geometry" />
        </mxCell>
        <mxCell id="44AiBCDxBOzTBdy34bFM-54" value="G" style="text;html=1;strokeColor=none;fillColor=none;align=center;verticalAlign=middle;whiteSpace=wrap;rounded=0;" parent="1" vertex="1">
          <mxGeometry x="269" y="207.5" width="40" height="20" as="geometry" />
        </mxCell>
        <mxCell id="44AiBCDxBOzTBdy34bFM-55" value="T" style="text;html=1;strokeColor=none;fillColor=none;align=center;verticalAlign=middle;whiteSpace=wrap;rounded=0;" parent="1" vertex="1">
          <mxGeometry x="269" y="247.5" width="40" height="20" as="geometry" />
        </mxCell>
        <mxCell id="44AiBCDxBOzTBdy34bFM-56" value="" style="rounded=0;whiteSpace=wrap;html=1;" parent="1" vertex="1">
          <mxGeometry x="269" y="117.5" width="40" height="160" as="geometry" />
        </mxCell>
        <mxCell id="4ptXgkVr047kW3-S0ShK-75" style="edgeStyle=none;rounded=1;jumpSize=20;orthogonalLoop=1;jettySize=auto;html=1;entryX=0;entryY=0;entryDx=0;entryDy=0;strokeWidth=1;exitX=1;exitY=1;exitDx=0;exitDy=0;" parent="1" source="44AiBCDxBOzTBdy34bFM-57" target="4ptXgkVr047kW3-S0ShK-49" edge="1">
          <mxGeometry relative="1" as="geometry" />
        </mxCell>
        <mxCell id="44AiBCDxBOzTBdy34bFM-57" value="" style="rounded=0;whiteSpace=wrap;html=1;" parent="1" vertex="1">
          <mxGeometry x="269" y="157.5" width="40" height="40" as="geometry" />
        </mxCell>
        <mxCell id="44AiBCDxBOzTBdy34bFM-58" value="" style="rounded=0;whiteSpace=wrap;html=1;" parent="1" vertex="1">
          <mxGeometry x="269" y="197.5" width="40" height="40" as="geometry" />
        </mxCell>
        <mxCell id="44AiBCDxBOzTBdy34bFM-59" value="" style="rounded=0;whiteSpace=wrap;html=1;fillColor=#d5e8d4;strokeColor=#82b366;" parent="1" vertex="1">
          <mxGeometry x="269" y="237.5" width="40" height="40" as="geometry" />
        </mxCell>
        <mxCell id="44AiBCDxBOzTBdy34bFM-60" value="" style="rounded=0;whiteSpace=wrap;html=1;" parent="1" vertex="1">
          <mxGeometry x="269" y="117.5" width="40" height="40" as="geometry" />
        </mxCell>
        <mxCell id="44AiBCDxBOzTBdy34bFM-61" value="&lt;div&gt;A&lt;/div&gt;" style="text;html=1;strokeColor=none;fillColor=none;align=center;verticalAlign=middle;whiteSpace=wrap;rounded=0;" parent="1" vertex="1">
          <mxGeometry x="269" y="127.5" width="40" height="20" as="geometry" />
        </mxCell>
        <mxCell id="44AiBCDxBOzTBdy34bFM-62" value="C" style="text;html=1;align=center;verticalAlign=middle;whiteSpace=wrap;rounded=0;" parent="1" vertex="1">
          <mxGeometry x="269" y="167.5" width="40" height="20" as="geometry" />
        </mxCell>
        <mxCell id="44AiBCDxBOzTBdy34bFM-63" value="G" style="text;html=1;strokeColor=none;fillColor=none;align=center;verticalAlign=middle;whiteSpace=wrap;rounded=0;" parent="1" vertex="1">
          <mxGeometry x="269" y="207.5" width="40" height="20" as="geometry" />
        </mxCell>
        <mxCell id="44AiBCDxBOzTBdy34bFM-64" value="T" style="text;html=1;strokeColor=none;fillColor=none;align=center;verticalAlign=middle;whiteSpace=wrap;rounded=0;" parent="1" vertex="1">
          <mxGeometry x="269" y="247.5" width="40" height="20" as="geometry" />
        </mxCell>
        <mxCell id="44AiBCDxBOzTBdy34bFM-65" value="&lt;div&gt;Promoter in one-hot&lt;/div&gt;" style="text;html=1;strokeColor=none;fillColor=none;align=center;verticalAlign=middle;whiteSpace=wrap;rounded=0;" parent="1" vertex="1">
          <mxGeometry x="149" y="287.5" width="160" height="20" as="geometry" />
        </mxCell>
        <mxCell id="44AiBCDxBOzTBdy34bFM-66" value="" style="rounded=0;whiteSpace=wrap;html=1;" parent="1" vertex="1">
          <mxGeometry x="150" y="429" width="40" height="160" as="geometry" />
        </mxCell>
        <mxCell id="44AiBCDxBOzTBdy34bFM-67" value="" style="rounded=0;whiteSpace=wrap;html=1;" parent="1" vertex="1">
          <mxGeometry x="150" y="469" width="40" height="40" as="geometry" />
        </mxCell>
        <mxCell id="44AiBCDxBOzTBdy34bFM-68" value="" style="rounded=0;whiteSpace=wrap;html=1;" parent="1" vertex="1">
          <mxGeometry x="150" y="509" width="40" height="40" as="geometry" />
        </mxCell>
        <mxCell id="44AiBCDxBOzTBdy34bFM-69" value="" style="rounded=0;whiteSpace=wrap;html=1;" parent="1" vertex="1">
          <mxGeometry x="150" y="549" width="40" height="40" as="geometry" />
        </mxCell>
        <mxCell id="44AiBCDxBOzTBdy34bFM-70" value="" style="rounded=0;whiteSpace=wrap;html=1;fillColor=#ffe6cc;strokeColor=#d79b00;" parent="1" vertex="1">
          <mxGeometry x="150" y="429" width="40" height="40" as="geometry" />
        </mxCell>
        <mxCell id="44AiBCDxBOzTBdy34bFM-71" value="&lt;div&gt;A&lt;/div&gt;" style="text;html=1;strokeColor=none;fillColor=none;align=center;verticalAlign=middle;whiteSpace=wrap;rounded=0;" parent="1" vertex="1">
          <mxGeometry x="150" y="439" width="40" height="20" as="geometry" />
        </mxCell>
        <mxCell id="44AiBCDxBOzTBdy34bFM-72" value="C" style="text;html=1;strokeColor=none;fillColor=none;align=center;verticalAlign=middle;whiteSpace=wrap;rounded=0;" parent="1" vertex="1">
          <mxGeometry x="150" y="479" width="40" height="20" as="geometry" />
        </mxCell>
        <mxCell id="44AiBCDxBOzTBdy34bFM-73" value="G" style="text;html=1;strokeColor=none;fillColor=none;align=center;verticalAlign=middle;whiteSpace=wrap;rounded=0;" parent="1" vertex="1">
          <mxGeometry x="150" y="519" width="40" height="20" as="geometry" />
        </mxCell>
        <mxCell id="44AiBCDxBOzTBdy34bFM-74" value="T" style="text;html=1;strokeColor=none;fillColor=none;align=center;verticalAlign=middle;whiteSpace=wrap;rounded=0;" parent="1" vertex="1">
          <mxGeometry x="150" y="559" width="40" height="20" as="geometry" />
        </mxCell>
        <mxCell id="44AiBCDxBOzTBdy34bFM-75" value="" style="rounded=0;whiteSpace=wrap;html=1;" parent="1" vertex="1">
          <mxGeometry x="190" y="429" width="40" height="160" as="geometry" />
        </mxCell>
        <mxCell id="44AiBCDxBOzTBdy34bFM-76" value="" style="rounded=0;whiteSpace=wrap;html=1;fillColor=#dae8fc;strokeColor=#6c8ebf;" parent="1" vertex="1">
          <mxGeometry x="190" y="469" width="40" height="40" as="geometry" />
        </mxCell>
        <mxCell id="44AiBCDxBOzTBdy34bFM-77" value="" style="rounded=0;whiteSpace=wrap;html=1;" parent="1" vertex="1">
          <mxGeometry x="190" y="509" width="40" height="40" as="geometry" />
        </mxCell>
        <mxCell id="44AiBCDxBOzTBdy34bFM-78" value="" style="rounded=0;whiteSpace=wrap;html=1;" parent="1" vertex="1">
          <mxGeometry x="190" y="549" width="40" height="40" as="geometry" />
        </mxCell>
        <mxCell id="44AiBCDxBOzTBdy34bFM-79" value="" style="rounded=0;whiteSpace=wrap;html=1;" parent="1" vertex="1">
          <mxGeometry x="190" y="429" width="40" height="40" as="geometry" />
        </mxCell>
        <mxCell id="44AiBCDxBOzTBdy34bFM-80" value="&lt;div&gt;A&lt;/div&gt;" style="text;html=1;strokeColor=none;fillColor=none;align=center;verticalAlign=middle;whiteSpace=wrap;rounded=0;" parent="1" vertex="1">
          <mxGeometry x="190" y="439" width="40" height="20" as="geometry" />
        </mxCell>
        <mxCell id="44AiBCDxBOzTBdy34bFM-81" value="C" style="text;html=1;strokeColor=none;fillColor=none;align=center;verticalAlign=middle;whiteSpace=wrap;rounded=0;" parent="1" vertex="1">
          <mxGeometry x="190" y="479" width="40" height="20" as="geometry" />
        </mxCell>
        <mxCell id="44AiBCDxBOzTBdy34bFM-82" value="G" style="text;html=1;strokeColor=none;fillColor=none;align=center;verticalAlign=middle;whiteSpace=wrap;rounded=0;" parent="1" vertex="1">
          <mxGeometry x="190" y="519" width="40" height="20" as="geometry" />
        </mxCell>
        <mxCell id="44AiBCDxBOzTBdy34bFM-83" value="T" style="text;html=1;strokeColor=none;fillColor=none;align=center;verticalAlign=middle;whiteSpace=wrap;rounded=0;" parent="1" vertex="1">
          <mxGeometry x="190" y="559" width="40" height="20" as="geometry" />
        </mxCell>
        <mxCell id="44AiBCDxBOzTBdy34bFM-84" value="" style="rounded=0;whiteSpace=wrap;html=1;" parent="1" vertex="1">
          <mxGeometry x="190" y="429" width="40" height="160" as="geometry" />
        </mxCell>
        <mxCell id="44AiBCDxBOzTBdy34bFM-85" value="" style="rounded=0;whiteSpace=wrap;html=1;fillColor=#dae8fc;strokeColor=#6c8ebf;" parent="1" vertex="1">
          <mxGeometry x="190" y="469" width="40" height="40" as="geometry" />
        </mxCell>
        <mxCell id="44AiBCDxBOzTBdy34bFM-86" value="" style="rounded=0;whiteSpace=wrap;html=1;" parent="1" vertex="1">
          <mxGeometry x="190" y="509" width="40" height="40" as="geometry" />
        </mxCell>
        <mxCell id="44AiBCDxBOzTBdy34bFM-87" value="" style="rounded=0;whiteSpace=wrap;html=1;" parent="1" vertex="1">
          <mxGeometry x="190" y="549" width="40" height="40" as="geometry" />
        </mxCell>
        <mxCell id="44AiBCDxBOzTBdy34bFM-88" value="" style="rounded=0;whiteSpace=wrap;html=1;" parent="1" vertex="1">
          <mxGeometry x="190" y="429" width="40" height="40" as="geometry" />
        </mxCell>
        <mxCell id="44AiBCDxBOzTBdy34bFM-89" value="&lt;div&gt;A&lt;/div&gt;" style="text;html=1;strokeColor=none;fillColor=none;align=center;verticalAlign=middle;whiteSpace=wrap;rounded=0;" parent="1" vertex="1">
          <mxGeometry x="190" y="439" width="40" height="20" as="geometry" />
        </mxCell>
        <mxCell id="44AiBCDxBOzTBdy34bFM-90" value="C" style="text;html=1;strokeColor=none;fillColor=none;align=center;verticalAlign=middle;whiteSpace=wrap;rounded=0;" parent="1" vertex="1">
          <mxGeometry x="190" y="479" width="40" height="20" as="geometry" />
        </mxCell>
        <mxCell id="44AiBCDxBOzTBdy34bFM-91" value="G" style="text;html=1;strokeColor=none;fillColor=none;align=center;verticalAlign=middle;whiteSpace=wrap;rounded=0;" parent="1" vertex="1">
          <mxGeometry x="190" y="519" width="40" height="20" as="geometry" />
        </mxCell>
        <mxCell id="44AiBCDxBOzTBdy34bFM-92" value="T" style="text;html=1;strokeColor=none;fillColor=none;align=center;verticalAlign=middle;whiteSpace=wrap;rounded=0;" parent="1" vertex="1">
          <mxGeometry x="190" y="559" width="40" height="20" as="geometry" />
        </mxCell>
        <mxCell id="44AiBCDxBOzTBdy34bFM-93" value="" style="rounded=0;whiteSpace=wrap;html=1;" parent="1" vertex="1">
          <mxGeometry x="230" y="429" width="40" height="160" as="geometry" />
        </mxCell>
        <mxCell id="44AiBCDxBOzTBdy34bFM-94" value="" style="rounded=0;whiteSpace=wrap;html=1;fillColor=#dae8fc;strokeColor=#6c8ebf;" parent="1" vertex="1">
          <mxGeometry x="230" y="469" width="40" height="40" as="geometry" />
        </mxCell>
        <mxCell id="44AiBCDxBOzTBdy34bFM-95" value="" style="rounded=0;whiteSpace=wrap;html=1;" parent="1" vertex="1">
          <mxGeometry x="230" y="509" width="40" height="40" as="geometry" />
        </mxCell>
        <mxCell id="44AiBCDxBOzTBdy34bFM-96" value="" style="rounded=0;whiteSpace=wrap;html=1;" parent="1" vertex="1">
          <mxGeometry x="230" y="549" width="40" height="40" as="geometry" />
        </mxCell>
        <mxCell id="44AiBCDxBOzTBdy34bFM-97" value="" style="rounded=0;whiteSpace=wrap;html=1;" parent="1" vertex="1">
          <mxGeometry x="230" y="429" width="40" height="40" as="geometry" />
        </mxCell>
        <mxCell id="44AiBCDxBOzTBdy34bFM-98" value="&lt;div&gt;A&lt;/div&gt;" style="text;html=1;strokeColor=none;fillColor=none;align=center;verticalAlign=middle;whiteSpace=wrap;rounded=0;" parent="1" vertex="1">
          <mxGeometry x="230" y="439" width="40" height="20" as="geometry" />
        </mxCell>
        <mxCell id="44AiBCDxBOzTBdy34bFM-99" value="C" style="text;html=1;strokeColor=none;fillColor=none;align=center;verticalAlign=middle;whiteSpace=wrap;rounded=0;" parent="1" vertex="1">
          <mxGeometry x="230" y="479" width="40" height="20" as="geometry" />
        </mxCell>
        <mxCell id="44AiBCDxBOzTBdy34bFM-100" value="G" style="text;html=1;strokeColor=none;fillColor=none;align=center;verticalAlign=middle;whiteSpace=wrap;rounded=0;" parent="1" vertex="1">
          <mxGeometry x="230" y="519" width="40" height="20" as="geometry" />
        </mxCell>
        <mxCell id="44AiBCDxBOzTBdy34bFM-101" value="T" style="text;html=1;strokeColor=none;fillColor=none;align=center;verticalAlign=middle;whiteSpace=wrap;rounded=0;" parent="1" vertex="1">
          <mxGeometry x="230" y="559" width="40" height="20" as="geometry" />
        </mxCell>
        <mxCell id="44AiBCDxBOzTBdy34bFM-102" value="" style="rounded=0;whiteSpace=wrap;html=1;" parent="1" vertex="1">
          <mxGeometry x="230" y="429" width="40" height="160" as="geometry" />
        </mxCell>
        <mxCell id="44AiBCDxBOzTBdy34bFM-103" value="" style="rounded=0;whiteSpace=wrap;html=1;" parent="1" vertex="1">
          <mxGeometry x="230" y="469" width="40" height="40" as="geometry" />
        </mxCell>
        <mxCell id="44AiBCDxBOzTBdy34bFM-104" value="" style="rounded=0;whiteSpace=wrap;html=1;fillColor=#f8cecc;strokeColor=#b85450;" parent="1" vertex="1">
          <mxGeometry x="230" y="509" width="40" height="40" as="geometry" />
        </mxCell>
        <mxCell id="44AiBCDxBOzTBdy34bFM-105" value="" style="rounded=0;whiteSpace=wrap;html=1;" parent="1" vertex="1">
          <mxGeometry x="230" y="549" width="40" height="40" as="geometry" />
        </mxCell>
        <mxCell id="44AiBCDxBOzTBdy34bFM-106" value="" style="rounded=0;whiteSpace=wrap;html=1;" parent="1" vertex="1">
          <mxGeometry x="230" y="429" width="40" height="40" as="geometry" />
        </mxCell>
        <mxCell id="44AiBCDxBOzTBdy34bFM-107" value="&lt;div&gt;A&lt;/div&gt;" style="text;html=1;strokeColor=none;fillColor=none;align=center;verticalAlign=middle;whiteSpace=wrap;rounded=0;" parent="1" vertex="1">
          <mxGeometry x="230" y="439" width="40" height="20" as="geometry" />
        </mxCell>
        <mxCell id="44AiBCDxBOzTBdy34bFM-108" value="C" style="text;html=1;strokeColor=none;fillColor=none;align=center;verticalAlign=middle;whiteSpace=wrap;rounded=0;" parent="1" vertex="1">
          <mxGeometry x="230" y="479" width="40" height="20" as="geometry" />
        </mxCell>
        <mxCell id="44AiBCDxBOzTBdy34bFM-109" value="G" style="text;html=1;strokeColor=none;fillColor=none;align=center;verticalAlign=middle;whiteSpace=wrap;rounded=0;" parent="1" vertex="1">
          <mxGeometry x="230" y="519" width="40" height="20" as="geometry" />
        </mxCell>
        <mxCell id="44AiBCDxBOzTBdy34bFM-110" value="T" style="text;html=1;strokeColor=none;fillColor=none;align=center;verticalAlign=middle;whiteSpace=wrap;rounded=0;" parent="1" vertex="1">
          <mxGeometry x="230" y="559" width="40" height="20" as="geometry" />
        </mxCell>
        <mxCell id="44AiBCDxBOzTBdy34bFM-111" value="" style="rounded=0;whiteSpace=wrap;html=1;" parent="1" vertex="1">
          <mxGeometry x="270" y="429" width="40" height="160" as="geometry" />
        </mxCell>
        <mxCell id="44AiBCDxBOzTBdy34bFM-112" value="" style="rounded=0;whiteSpace=wrap;html=1;fillColor=#dae8fc;strokeColor=#6c8ebf;" parent="1" vertex="1">
          <mxGeometry x="270" y="469" width="40" height="40" as="geometry" />
        </mxCell>
        <mxCell id="44AiBCDxBOzTBdy34bFM-113" value="" style="rounded=0;whiteSpace=wrap;html=1;" parent="1" vertex="1">
          <mxGeometry x="270" y="509" width="40" height="40" as="geometry" />
        </mxCell>
        <mxCell id="44AiBCDxBOzTBdy34bFM-114" value="" style="rounded=0;whiteSpace=wrap;html=1;" parent="1" vertex="1">
          <mxGeometry x="270" y="549" width="40" height="40" as="geometry" />
        </mxCell>
        <mxCell id="44AiBCDxBOzTBdy34bFM-115" value="" style="rounded=0;whiteSpace=wrap;html=1;" parent="1" vertex="1">
          <mxGeometry x="270" y="429" width="40" height="40" as="geometry" />
        </mxCell>
        <mxCell id="44AiBCDxBOzTBdy34bFM-116" value="&lt;div&gt;A&lt;/div&gt;" style="text;html=1;strokeColor=none;fillColor=none;align=center;verticalAlign=middle;whiteSpace=wrap;rounded=0;" parent="1" vertex="1">
          <mxGeometry x="270" y="439" width="40" height="20" as="geometry" />
        </mxCell>
        <mxCell id="44AiBCDxBOzTBdy34bFM-117" value="C" style="text;html=1;strokeColor=none;fillColor=none;align=center;verticalAlign=middle;whiteSpace=wrap;rounded=0;" parent="1" vertex="1">
          <mxGeometry x="270" y="479" width="40" height="20" as="geometry" />
        </mxCell>
        <mxCell id="44AiBCDxBOzTBdy34bFM-118" value="G" style="text;html=1;strokeColor=none;fillColor=none;align=center;verticalAlign=middle;whiteSpace=wrap;rounded=0;" parent="1" vertex="1">
          <mxGeometry x="270" y="519" width="40" height="20" as="geometry" />
        </mxCell>
        <mxCell id="44AiBCDxBOzTBdy34bFM-119" value="T" style="text;html=1;strokeColor=none;fillColor=none;align=center;verticalAlign=middle;whiteSpace=wrap;rounded=0;" parent="1" vertex="1">
          <mxGeometry x="270" y="559" width="40" height="20" as="geometry" />
        </mxCell>
        <mxCell id="44AiBCDxBOzTBdy34bFM-120" value="" style="rounded=0;whiteSpace=wrap;html=1;" parent="1" vertex="1">
          <mxGeometry x="270" y="429" width="40" height="160" as="geometry" />
        </mxCell>
        <mxCell id="44AiBCDxBOzTBdy34bFM-121" value="" style="rounded=0;whiteSpace=wrap;html=1;" parent="1" vertex="1">
          <mxGeometry x="270" y="469" width="40" height="40" as="geometry" />
        </mxCell>
        <mxCell id="44AiBCDxBOzTBdy34bFM-122" value="" style="rounded=0;whiteSpace=wrap;html=1;" parent="1" vertex="1">
          <mxGeometry x="270" y="509" width="40" height="40" as="geometry" />
        </mxCell>
        <mxCell id="44AiBCDxBOzTBdy34bFM-123" value="" style="rounded=0;whiteSpace=wrap;html=1;fillColor=#d5e8d4;strokeColor=#82b366;" parent="1" vertex="1">
          <mxGeometry x="270" y="549" width="40" height="40" as="geometry" />
        </mxCell>
        <mxCell id="44AiBCDxBOzTBdy34bFM-124" value="" style="rounded=0;whiteSpace=wrap;html=1;" parent="1" vertex="1">
          <mxGeometry x="270" y="429" width="40" height="40" as="geometry" />
        </mxCell>
        <mxCell id="44AiBCDxBOzTBdy34bFM-125" value="&lt;div&gt;A&lt;/div&gt;" style="text;html=1;strokeColor=none;fillColor=none;align=center;verticalAlign=middle;whiteSpace=wrap;rounded=0;" parent="1" vertex="1">
          <mxGeometry x="270" y="439" width="40" height="20" as="geometry" />
        </mxCell>
        <mxCell id="4ptXgkVr047kW3-S0ShK-126" style="edgeStyle=none;rounded=1;jumpSize=20;orthogonalLoop=1;jettySize=auto;html=1;entryX=0;entryY=0;entryDx=0;entryDy=0;strokeWidth=1;exitX=1;exitY=0;exitDx=0;exitDy=0;" parent="1" source="44AiBCDxBOzTBdy34bFM-122" target="4ptXgkVr047kW3-S0ShK-100" edge="1">
          <mxGeometry relative="1" as="geometry" />
        </mxCell>
        <mxCell id="44AiBCDxBOzTBdy34bFM-126" value="C" style="text;html=1;align=center;verticalAlign=middle;whiteSpace=wrap;rounded=0;" parent="1" vertex="1">
          <mxGeometry x="270" y="479" width="40" height="20" as="geometry" />
        </mxCell>
        <mxCell id="44AiBCDxBOzTBdy34bFM-127" value="G" style="text;html=1;strokeColor=none;fillColor=none;align=center;verticalAlign=middle;whiteSpace=wrap;rounded=0;" parent="1" vertex="1">
          <mxGeometry x="270" y="519" width="40" height="20" as="geometry" />
        </mxCell>
        <mxCell id="44AiBCDxBOzTBdy34bFM-128" value="T" style="text;html=1;strokeColor=none;fillColor=none;align=center;verticalAlign=middle;whiteSpace=wrap;rounded=0;" parent="1" vertex="1">
          <mxGeometry x="270" y="559" width="40" height="20" as="geometry" />
        </mxCell>
        <mxCell id="44AiBCDxBOzTBdy34bFM-129" value="&lt;div&gt;Enhancer in one-hot&lt;/div&gt;" style="text;html=1;strokeColor=none;fillColor=none;align=center;verticalAlign=middle;whiteSpace=wrap;rounded=0;" parent="1" vertex="1">
          <mxGeometry x="150" y="599" width="160" height="20" as="geometry" />
        </mxCell>
        <mxCell id="4ptXgkVr047kW3-S0ShK-8" value="" style="rounded=0;whiteSpace=wrap;html=1;shadow=1;glass=0;sketch=1;fillColor=#f5f5f5;strokeColor=#666666;fontColor=#333333;" parent="1" vertex="1">
          <mxGeometry x="429" y="107.5" width="30" height="30" as="geometry" />
        </mxCell>
        <mxCell id="4ptXgkVr047kW3-S0ShK-9" value="" style="rounded=0;whiteSpace=wrap;html=1;shadow=1;glass=0;sketch=1;fillColor=#f5f5f5;strokeColor=#666666;fontColor=#333333;" parent="1" vertex="1">
          <mxGeometry x="399" y="107.5" width="30" height="30" as="geometry" />
        </mxCell>
        <mxCell id="4ptXgkVr047kW3-S0ShK-10" value="" style="rounded=0;whiteSpace=wrap;html=1;shadow=1;glass=0;sketch=1;fillColor=#f5f5f5;strokeColor=#666666;fontColor=#333333;" parent="1" vertex="1">
          <mxGeometry x="459" y="107.5" width="30" height="30" as="geometry" />
        </mxCell>
        <mxCell id="4ptXgkVr047kW3-S0ShK-12" value="" style="rounded=0;whiteSpace=wrap;html=1;shadow=1;glass=0;sketch=1;fillColor=#f5f5f5;strokeColor=#666666;fontColor=#333333;" parent="1" vertex="1">
          <mxGeometry x="519" y="107.5" width="30" height="30" as="geometry" />
        </mxCell>
        <mxCell id="4ptXgkVr047kW3-S0ShK-13" value="" style="rounded=0;whiteSpace=wrap;html=1;shadow=1;glass=0;sketch=1;fillColor=#f5f5f5;strokeColor=#666666;fontColor=#333333;" parent="1" vertex="1">
          <mxGeometry x="489" y="107.5" width="30" height="30" as="geometry" />
        </mxCell>
        <mxCell id="4ptXgkVr047kW3-S0ShK-14" value="" style="rounded=0;whiteSpace=wrap;html=1;shadow=1;glass=0;sketch=1;fillColor=#f5f5f5;strokeColor=#666666;fontColor=#333333;" parent="1" vertex="1">
          <mxGeometry x="549" y="107.5" width="30" height="30" as="geometry" />
        </mxCell>
        <mxCell id="4ptXgkVr047kW3-S0ShK-16" value="" style="rounded=0;whiteSpace=wrap;html=1;shadow=1;glass=0;sketch=1;fillColor=#f5f5f5;strokeColor=#666666;fontColor=#333333;" parent="1" vertex="1">
          <mxGeometry x="429" y="137.5" width="30" height="30" as="geometry" />
        </mxCell>
        <mxCell id="4ptXgkVr047kW3-S0ShK-17" value="" style="rounded=0;whiteSpace=wrap;html=1;shadow=1;glass=0;sketch=1;fillColor=#f5f5f5;strokeColor=#666666;fontColor=#333333;" parent="1" vertex="1">
          <mxGeometry x="399" y="137.5" width="30" height="30" as="geometry" />
        </mxCell>
        <mxCell id="4ptXgkVr047kW3-S0ShK-18" value="" style="rounded=0;whiteSpace=wrap;html=1;shadow=1;glass=0;sketch=1;fillColor=#f5f5f5;strokeColor=#666666;fontColor=#333333;" parent="1" vertex="1">
          <mxGeometry x="459" y="137.5" width="30" height="30" as="geometry" />
        </mxCell>
        <mxCell id="4ptXgkVr047kW3-S0ShK-19" value="" style="rounded=0;whiteSpace=wrap;html=1;shadow=1;glass=0;sketch=1;fillColor=#f5f5f5;strokeColor=#666666;fontColor=#333333;" parent="1" vertex="1">
          <mxGeometry x="519" y="137.5" width="30" height="30" as="geometry" />
        </mxCell>
        <mxCell id="4ptXgkVr047kW3-S0ShK-20" value="" style="rounded=0;whiteSpace=wrap;html=1;shadow=1;glass=0;sketch=1;fillColor=#f5f5f5;strokeColor=#666666;fontColor=#333333;" parent="1" vertex="1">
          <mxGeometry x="489" y="137.5" width="30" height="30" as="geometry" />
        </mxCell>
        <mxCell id="4ptXgkVr047kW3-S0ShK-21" value="" style="rounded=0;whiteSpace=wrap;html=1;shadow=1;glass=0;sketch=1;fillColor=#f5f5f5;strokeColor=#666666;fontColor=#333333;" parent="1" vertex="1">
          <mxGeometry x="549" y="137.5" width="30" height="30" as="geometry" />
        </mxCell>
        <mxCell id="4ptXgkVr047kW3-S0ShK-22" value="" style="rounded=0;whiteSpace=wrap;html=1;shadow=1;glass=0;sketch=1;fillColor=#f5f5f5;strokeColor=#666666;fontColor=#333333;" parent="1" vertex="1">
          <mxGeometry x="609" y="107.5" width="30" height="30" as="geometry" />
        </mxCell>
        <mxCell id="4ptXgkVr047kW3-S0ShK-23" value="" style="rounded=0;whiteSpace=wrap;html=1;shadow=1;glass=0;sketch=1;fillColor=#f5f5f5;strokeColor=#666666;fontColor=#333333;" parent="1" vertex="1">
          <mxGeometry x="579" y="137.5" width="30" height="30" as="geometry" />
        </mxCell>
        <mxCell id="4ptXgkVr047kW3-S0ShK-24" value="" style="rounded=0;whiteSpace=wrap;html=1;shadow=1;glass=0;sketch=1;fillColor=#f5f5f5;strokeColor=#666666;fontColor=#333333;" parent="1" vertex="1">
          <mxGeometry x="579" y="107.5" width="30" height="30" as="geometry" />
        </mxCell>
        <mxCell id="4ptXgkVr047kW3-S0ShK-25" value="" style="rounded=0;whiteSpace=wrap;html=1;shadow=1;glass=0;sketch=1;fillColor=#f5f5f5;strokeColor=#666666;fontColor=#333333;" parent="1" vertex="1">
          <mxGeometry x="609" y="137.5" width="30" height="30" as="geometry" />
        </mxCell>
        <mxCell id="4ptXgkVr047kW3-S0ShK-42" value="" style="rounded=0;whiteSpace=wrap;html=1;shadow=1;glass=0;sketch=1;fillColor=#f5f5f5;strokeColor=#666666;fontColor=#333333;" parent="1" vertex="1">
          <mxGeometry x="429" y="167.5" width="30" height="30" as="geometry" />
        </mxCell>
        <mxCell id="4ptXgkVr047kW3-S0ShK-43" value="" style="rounded=0;whiteSpace=wrap;html=1;shadow=1;glass=0;sketch=1;fillColor=#f5f5f5;strokeColor=#666666;fontColor=#333333;" parent="1" vertex="1">
          <mxGeometry x="399" y="167.5" width="30" height="30" as="geometry" />
        </mxCell>
        <mxCell id="4ptXgkVr047kW3-S0ShK-44" value="" style="rounded=0;whiteSpace=wrap;html=1;shadow=1;glass=0;sketch=1;fillColor=#f5f5f5;strokeColor=#666666;fontColor=#333333;" parent="1" vertex="1">
          <mxGeometry x="459" y="167.5" width="30" height="30" as="geometry" />
        </mxCell>
        <mxCell id="4ptXgkVr047kW3-S0ShK-45" value="" style="rounded=0;whiteSpace=wrap;html=1;shadow=1;glass=0;sketch=1;fillColor=#f5f5f5;strokeColor=#666666;fontColor=#333333;" parent="1" vertex="1">
          <mxGeometry x="519" y="167.5" width="30" height="30" as="geometry" />
        </mxCell>
        <mxCell id="4ptXgkVr047kW3-S0ShK-46" value="" style="rounded=0;whiteSpace=wrap;html=1;shadow=1;glass=0;sketch=1;fillColor=#f5f5f5;strokeColor=#666666;fontColor=#333333;" parent="1" vertex="1">
          <mxGeometry x="489" y="167.5" width="30" height="30" as="geometry" />
        </mxCell>
        <mxCell id="4ptXgkVr047kW3-S0ShK-47" value="" style="rounded=0;whiteSpace=wrap;html=1;shadow=1;glass=0;sketch=1;fillColor=#f5f5f5;strokeColor=#666666;fontColor=#333333;" parent="1" vertex="1">
          <mxGeometry x="549" y="167.5" width="30" height="30" as="geometry" />
        </mxCell>
        <mxCell id="4ptXgkVr047kW3-S0ShK-48" value="" style="rounded=0;whiteSpace=wrap;html=1;shadow=1;glass=0;sketch=1;fillColor=#f5f5f5;strokeColor=#666666;fontColor=#333333;" parent="1" vertex="1">
          <mxGeometry x="429" y="197.5" width="30" height="30" as="geometry" />
        </mxCell>
        <mxCell id="4ptXgkVr047kW3-S0ShK-49" value="" style="rounded=0;whiteSpace=wrap;html=1;shadow=1;glass=0;sketch=1;fillColor=#f5f5f5;strokeColor=#666666;fontColor=#333333;" parent="1" vertex="1">
          <mxGeometry x="399" y="197.5" width="30" height="30" as="geometry" />
        </mxCell>
        <mxCell id="4ptXgkVr047kW3-S0ShK-50" value="" style="rounded=0;whiteSpace=wrap;html=1;shadow=1;glass=0;sketch=1;fillColor=#f5f5f5;strokeColor=#666666;fontColor=#333333;" parent="1" vertex="1">
          <mxGeometry x="459" y="197.5" width="30" height="30" as="geometry" />
        </mxCell>
        <mxCell id="4ptXgkVr047kW3-S0ShK-51" value="" style="rounded=0;whiteSpace=wrap;html=1;shadow=1;glass=0;sketch=1;fillColor=#f5f5f5;strokeColor=#666666;fontColor=#333333;" parent="1" vertex="1">
          <mxGeometry x="519" y="197.5" width="30" height="30" as="geometry" />
        </mxCell>
        <mxCell id="4ptXgkVr047kW3-S0ShK-52" value="" style="rounded=0;whiteSpace=wrap;html=1;shadow=1;glass=0;sketch=1;fillColor=#f5f5f5;strokeColor=#666666;fontColor=#333333;" parent="1" vertex="1">
          <mxGeometry x="489" y="197.5" width="30" height="30" as="geometry" />
        </mxCell>
        <mxCell id="4ptXgkVr047kW3-S0ShK-53" value="" style="rounded=0;whiteSpace=wrap;html=1;shadow=1;glass=0;sketch=1;fillColor=#f5f5f5;strokeColor=#666666;fontColor=#333333;" parent="1" vertex="1">
          <mxGeometry x="549" y="197.5" width="30" height="30" as="geometry" />
        </mxCell>
        <mxCell id="4ptXgkVr047kW3-S0ShK-76" style="edgeStyle=none;rounded=1;jumpSize=20;orthogonalLoop=1;jettySize=auto;html=1;entryX=0;entryY=0;entryDx=0;entryDy=0;strokeWidth=1;exitX=1;exitY=1;exitDx=0;exitDy=0;" parent="1" source="4ptXgkVr047kW3-S0ShK-54" edge="1">
          <mxGeometry relative="1" as="geometry">
            <mxPoint x="735" y="197.5" as="targetPoint" />
          </mxGeometry>
        </mxCell>
        <mxCell id="4ptXgkVr047kW3-S0ShK-54" value="" style="rounded=0;whiteSpace=wrap;html=1;shadow=1;glass=0;sketch=1;fillColor=#f5f5f5;strokeColor=#666666;fontColor=#333333;" parent="1" vertex="1">
          <mxGeometry x="609" y="167.5" width="30" height="30" as="geometry" />
        </mxCell>
        <mxCell id="4ptXgkVr047kW3-S0ShK-55" value="" style="rounded=0;whiteSpace=wrap;html=1;shadow=1;glass=0;sketch=1;fillColor=#f5f5f5;strokeColor=#666666;fontColor=#333333;" parent="1" vertex="1">
          <mxGeometry x="579" y="197.5" width="30" height="30" as="geometry" />
        </mxCell>
        <mxCell id="4ptXgkVr047kW3-S0ShK-56" value="" style="rounded=0;whiteSpace=wrap;html=1;shadow=1;glass=0;sketch=1;fillColor=#f5f5f5;strokeColor=#666666;fontColor=#333333;" parent="1" vertex="1">
          <mxGeometry x="579" y="167.5" width="30" height="30" as="geometry" />
        </mxCell>
        <mxCell id="4ptXgkVr047kW3-S0ShK-57" value="" style="rounded=0;whiteSpace=wrap;html=1;shadow=1;glass=0;sketch=1;fillColor=#f5f5f5;strokeColor=#666666;fontColor=#333333;" parent="1" vertex="1">
          <mxGeometry x="609" y="197.5" width="30" height="30" as="geometry" />
        </mxCell>
        <mxCell id="4ptXgkVr047kW3-S0ShK-58" value="" style="rounded=0;whiteSpace=wrap;html=1;shadow=1;glass=0;sketch=1;fillColor=#f5f5f5;strokeColor=#666666;fontColor=#333333;" parent="1" vertex="1">
          <mxGeometry x="429" y="227.5" width="30" height="30" as="geometry" />
        </mxCell>
        <mxCell id="4ptXgkVr047kW3-S0ShK-59" value="" style="rounded=0;whiteSpace=wrap;html=1;shadow=1;glass=0;sketch=1;fillColor=#f5f5f5;strokeColor=#666666;fontColor=#333333;" parent="1" vertex="1">
          <mxGeometry x="399" y="227.5" width="30" height="30" as="geometry" />
        </mxCell>
        <mxCell id="4ptXgkVr047kW3-S0ShK-60" value="" style="rounded=0;whiteSpace=wrap;html=1;shadow=1;glass=0;sketch=1;fillColor=#f5f5f5;strokeColor=#666666;fontColor=#333333;" parent="1" vertex="1">
          <mxGeometry x="459" y="227.5" width="30" height="30" as="geometry" />
        </mxCell>
        <mxCell id="4ptXgkVr047kW3-S0ShK-61" value="" style="rounded=0;whiteSpace=wrap;html=1;shadow=1;glass=0;sketch=1;fillColor=#f5f5f5;strokeColor=#666666;fontColor=#333333;" parent="1" vertex="1">
          <mxGeometry x="519" y="227.5" width="30" height="30" as="geometry" />
        </mxCell>
        <mxCell id="4ptXgkVr047kW3-S0ShK-62" value="" style="rounded=0;whiteSpace=wrap;html=1;shadow=1;glass=0;sketch=1;fillColor=#f5f5f5;strokeColor=#666666;fontColor=#333333;" parent="1" vertex="1">
          <mxGeometry x="489" y="227.5" width="30" height="30" as="geometry" />
        </mxCell>
        <mxCell id="4ptXgkVr047kW3-S0ShK-63" value="" style="rounded=0;whiteSpace=wrap;html=1;shadow=1;glass=0;sketch=1;fillColor=#f5f5f5;strokeColor=#666666;fontColor=#333333;" parent="1" vertex="1">
          <mxGeometry x="549" y="227.5" width="30" height="30" as="geometry" />
        </mxCell>
        <mxCell id="4ptXgkVr047kW3-S0ShK-64" value="" style="rounded=0;whiteSpace=wrap;html=1;shadow=1;glass=0;sketch=1;fillColor=#f5f5f5;strokeColor=#666666;fontColor=#333333;" parent="1" vertex="1">
          <mxGeometry x="429" y="257.5" width="30" height="30" as="geometry" />
        </mxCell>
        <mxCell id="4ptXgkVr047kW3-S0ShK-65" value="" style="rounded=0;whiteSpace=wrap;html=1;shadow=1;glass=0;sketch=1;fillColor=#f5f5f5;strokeColor=#666666;fontColor=#333333;" parent="1" vertex="1">
          <mxGeometry x="399" y="257.5" width="30" height="30" as="geometry" />
        </mxCell>
        <mxCell id="4ptXgkVr047kW3-S0ShK-66" value="" style="rounded=0;whiteSpace=wrap;html=1;shadow=1;glass=0;sketch=1;fillColor=#f5f5f5;strokeColor=#666666;fontColor=#333333;" parent="1" vertex="1">
          <mxGeometry x="459" y="257.5" width="30" height="30" as="geometry" />
        </mxCell>
        <mxCell id="4ptXgkVr047kW3-S0ShK-67" value="" style="rounded=0;whiteSpace=wrap;html=1;shadow=1;glass=0;sketch=1;fillColor=#f5f5f5;strokeColor=#666666;fontColor=#333333;" parent="1" vertex="1">
          <mxGeometry x="519" y="257.5" width="30" height="30" as="geometry" />
        </mxCell>
        <mxCell id="4ptXgkVr047kW3-S0ShK-68" value="" style="rounded=0;whiteSpace=wrap;html=1;shadow=1;glass=0;sketch=1;fillColor=#f5f5f5;strokeColor=#666666;fontColor=#333333;" parent="1" vertex="1">
          <mxGeometry x="489" y="257.5" width="30" height="30" as="geometry" />
        </mxCell>
        <mxCell id="4ptXgkVr047kW3-S0ShK-69" value="" style="rounded=0;whiteSpace=wrap;html=1;shadow=1;glass=0;sketch=1;fillColor=#f5f5f5;strokeColor=#666666;fontColor=#333333;" parent="1" vertex="1">
          <mxGeometry x="549" y="257.5" width="30" height="30" as="geometry" />
        </mxCell>
        <mxCell id="4ptXgkVr047kW3-S0ShK-70" value="" style="rounded=0;whiteSpace=wrap;html=1;shadow=1;glass=0;sketch=1;fillColor=#f5f5f5;strokeColor=#666666;fontColor=#333333;" parent="1" vertex="1">
          <mxGeometry x="609" y="227.5" width="30" height="30" as="geometry" />
        </mxCell>
        <mxCell id="4ptXgkVr047kW3-S0ShK-71" value="" style="rounded=0;whiteSpace=wrap;html=1;shadow=1;glass=0;sketch=1;fillColor=#f5f5f5;strokeColor=#666666;fontColor=#333333;" parent="1" vertex="1">
          <mxGeometry x="579" y="257.5" width="30" height="30" as="geometry" />
        </mxCell>
        <mxCell id="4ptXgkVr047kW3-S0ShK-72" value="" style="rounded=0;whiteSpace=wrap;html=1;shadow=1;glass=0;sketch=1;fillColor=#f5f5f5;strokeColor=#666666;fontColor=#333333;" parent="1" vertex="1">
          <mxGeometry x="579" y="227.5" width="30" height="30" as="geometry" />
        </mxCell>
        <mxCell id="4ptXgkVr047kW3-S0ShK-73" value="" style="rounded=0;whiteSpace=wrap;html=1;shadow=1;glass=0;sketch=1;fillColor=#f5f5f5;strokeColor=#666666;fontColor=#333333;" parent="1" vertex="1">
          <mxGeometry x="609" y="257.5" width="30" height="30" as="geometry" />
        </mxCell>
        <mxCell id="4ptXgkVr047kW3-S0ShK-74" value="&lt;div&gt;embedding layer&lt;/div&gt;" style="text;html=1;strokeColor=none;fillColor=none;align=center;verticalAlign=middle;whiteSpace=wrap;rounded=0;" parent="1" vertex="1">
          <mxGeometry x="454" y="297.5" width="160" height="20" as="geometry" />
        </mxCell>
        <mxCell id="4ptXgkVr047kW3-S0ShK-77" value="" style="rounded=0;whiteSpace=wrap;html=1;shadow=1;glass=0;sketch=1;fillColor=#f5f5f5;strokeColor=#666666;fontColor=#333333;" parent="1" vertex="1">
          <mxGeometry x="445" y="419" width="30" height="30" as="geometry" />
        </mxCell>
        <mxCell id="4ptXgkVr047kW3-S0ShK-78" value="" style="rounded=0;whiteSpace=wrap;html=1;shadow=1;glass=0;sketch=1;fillColor=#f5f5f5;strokeColor=#666666;fontColor=#333333;" parent="1" vertex="1">
          <mxGeometry x="415" y="419" width="30" height="30" as="geometry" />
        </mxCell>
        <mxCell id="4ptXgkVr047kW3-S0ShK-79" value="" style="rounded=0;whiteSpace=wrap;html=1;shadow=1;glass=0;sketch=1;fillColor=#f5f5f5;strokeColor=#666666;fontColor=#333333;" parent="1" vertex="1">
          <mxGeometry x="475" y="419" width="30" height="30" as="geometry" />
        </mxCell>
        <mxCell id="4ptXgkVr047kW3-S0ShK-80" value="" style="rounded=0;whiteSpace=wrap;html=1;shadow=1;glass=0;sketch=1;fillColor=#f5f5f5;strokeColor=#666666;fontColor=#333333;" parent="1" vertex="1">
          <mxGeometry x="535" y="419" width="30" height="30" as="geometry" />
        </mxCell>
        <mxCell id="4ptXgkVr047kW3-S0ShK-81" value="" style="rounded=0;whiteSpace=wrap;html=1;shadow=1;glass=0;sketch=1;fillColor=#f5f5f5;strokeColor=#666666;fontColor=#333333;" parent="1" vertex="1">
          <mxGeometry x="505" y="419" width="30" height="30" as="geometry" />
        </mxCell>
        <mxCell id="4ptXgkVr047kW3-S0ShK-82" value="" style="rounded=0;whiteSpace=wrap;html=1;shadow=1;glass=0;sketch=1;fillColor=#f5f5f5;strokeColor=#666666;fontColor=#333333;" parent="1" vertex="1">
          <mxGeometry x="565" y="419" width="30" height="30" as="geometry" />
        </mxCell>
        <mxCell id="4ptXgkVr047kW3-S0ShK-83" value="" style="rounded=0;whiteSpace=wrap;html=1;shadow=1;glass=0;sketch=1;fillColor=#f5f5f5;strokeColor=#666666;fontColor=#333333;" parent="1" vertex="1">
          <mxGeometry x="445" y="449" width="30" height="30" as="geometry" />
        </mxCell>
        <mxCell id="4ptXgkVr047kW3-S0ShK-84" value="" style="rounded=0;whiteSpace=wrap;html=1;shadow=1;glass=0;sketch=1;fillColor=#f5f5f5;strokeColor=#666666;fontColor=#333333;" parent="1" vertex="1">
          <mxGeometry x="415" y="449" width="30" height="30" as="geometry" />
        </mxCell>
        <mxCell id="4ptXgkVr047kW3-S0ShK-85" value="" style="rounded=0;whiteSpace=wrap;html=1;shadow=1;glass=0;sketch=1;fillColor=#f5f5f5;strokeColor=#666666;fontColor=#333333;" parent="1" vertex="1">
          <mxGeometry x="475" y="449" width="30" height="30" as="geometry" />
        </mxCell>
        <mxCell id="4ptXgkVr047kW3-S0ShK-86" value="" style="rounded=0;whiteSpace=wrap;html=1;shadow=1;glass=0;sketch=1;fillColor=#f5f5f5;strokeColor=#666666;fontColor=#333333;" parent="1" vertex="1">
          <mxGeometry x="535" y="449" width="30" height="30" as="geometry" />
        </mxCell>
        <mxCell id="4ptXgkVr047kW3-S0ShK-87" value="" style="rounded=0;whiteSpace=wrap;html=1;shadow=1;glass=0;sketch=1;fillColor=#f5f5f5;strokeColor=#666666;fontColor=#333333;" parent="1" vertex="1">
          <mxGeometry x="505" y="449" width="30" height="30" as="geometry" />
        </mxCell>
        <mxCell id="4ptXgkVr047kW3-S0ShK-88" value="" style="rounded=0;whiteSpace=wrap;html=1;shadow=1;glass=0;sketch=1;fillColor=#f5f5f5;strokeColor=#666666;fontColor=#333333;" parent="1" vertex="1">
          <mxGeometry x="565" y="449" width="30" height="30" as="geometry" />
        </mxCell>
        <mxCell id="4ptXgkVr047kW3-S0ShK-89" value="" style="rounded=0;whiteSpace=wrap;html=1;shadow=1;glass=0;sketch=1;fillColor=#f5f5f5;strokeColor=#666666;fontColor=#333333;" parent="1" vertex="1">
          <mxGeometry x="625" y="419" width="30" height="30" as="geometry" />
        </mxCell>
        <mxCell id="4ptXgkVr047kW3-S0ShK-90" value="" style="rounded=0;whiteSpace=wrap;html=1;shadow=1;glass=0;sketch=1;fillColor=#f5f5f5;strokeColor=#666666;fontColor=#333333;" parent="1" vertex="1">
          <mxGeometry x="595" y="449" width="30" height="30" as="geometry" />
        </mxCell>
        <mxCell id="4ptXgkVr047kW3-S0ShK-91" value="" style="rounded=0;whiteSpace=wrap;html=1;shadow=1;glass=0;sketch=1;fillColor=#f5f5f5;strokeColor=#666666;fontColor=#333333;" parent="1" vertex="1">
          <mxGeometry x="595" y="419" width="30" height="30" as="geometry" />
        </mxCell>
        <mxCell id="4ptXgkVr047kW3-S0ShK-92" value="" style="rounded=0;whiteSpace=wrap;html=1;shadow=1;glass=0;sketch=1;fillColor=#f5f5f5;strokeColor=#666666;fontColor=#333333;" parent="1" vertex="1">
          <mxGeometry x="625" y="449" width="30" height="30" as="geometry" />
        </mxCell>
        <mxCell id="4ptXgkVr047kW3-S0ShK-93" value="" style="rounded=0;whiteSpace=wrap;html=1;shadow=1;glass=0;sketch=1;fillColor=#f5f5f5;strokeColor=#666666;fontColor=#333333;" parent="1" vertex="1">
          <mxGeometry x="445" y="479" width="30" height="30" as="geometry" />
        </mxCell>
        <mxCell id="4ptXgkVr047kW3-S0ShK-94" value="" style="rounded=0;whiteSpace=wrap;html=1;shadow=1;glass=0;sketch=1;fillColor=#f5f5f5;strokeColor=#666666;fontColor=#333333;" parent="1" vertex="1">
          <mxGeometry x="415" y="479" width="30" height="30" as="geometry" />
        </mxCell>
        <mxCell id="4ptXgkVr047kW3-S0ShK-95" value="" style="rounded=0;whiteSpace=wrap;html=1;shadow=1;glass=0;sketch=1;fillColor=#f5f5f5;strokeColor=#666666;fontColor=#333333;" parent="1" vertex="1">
          <mxGeometry x="475" y="479" width="30" height="30" as="geometry" />
        </mxCell>
        <mxCell id="4ptXgkVr047kW3-S0ShK-96" value="" style="rounded=0;whiteSpace=wrap;html=1;shadow=1;glass=0;sketch=1;fillColor=#f5f5f5;strokeColor=#666666;fontColor=#333333;" parent="1" vertex="1">
          <mxGeometry x="535" y="479" width="30" height="30" as="geometry" />
        </mxCell>
        <mxCell id="4ptXgkVr047kW3-S0ShK-97" value="" style="rounded=0;whiteSpace=wrap;html=1;shadow=1;glass=0;sketch=1;fillColor=#f5f5f5;strokeColor=#666666;fontColor=#333333;" parent="1" vertex="1">
          <mxGeometry x="505" y="479" width="30" height="30" as="geometry" />
        </mxCell>
        <mxCell id="4ptXgkVr047kW3-S0ShK-98" value="" style="rounded=0;whiteSpace=wrap;html=1;shadow=1;glass=0;sketch=1;fillColor=#f5f5f5;strokeColor=#666666;fontColor=#333333;" parent="1" vertex="1">
          <mxGeometry x="565" y="479" width="30" height="30" as="geometry" />
        </mxCell>
        <mxCell id="4ptXgkVr047kW3-S0ShK-99" value="" style="rounded=0;whiteSpace=wrap;html=1;shadow=1;glass=0;sketch=1;fillColor=#f5f5f5;strokeColor=#666666;fontColor=#333333;" parent="1" vertex="1">
          <mxGeometry x="445" y="509" width="30" height="30" as="geometry" />
        </mxCell>
        <mxCell id="4ptXgkVr047kW3-S0ShK-100" value="" style="rounded=0;whiteSpace=wrap;html=1;shadow=1;glass=0;sketch=1;fillColor=#f5f5f5;strokeColor=#666666;fontColor=#333333;" parent="1" vertex="1">
          <mxGeometry x="415" y="509" width="30" height="30" as="geometry" />
        </mxCell>
        <mxCell id="4ptXgkVr047kW3-S0ShK-101" value="" style="rounded=0;whiteSpace=wrap;html=1;shadow=1;glass=0;sketch=1;fillColor=#f5f5f5;strokeColor=#666666;fontColor=#333333;" parent="1" vertex="1">
          <mxGeometry x="475" y="509" width="30" height="30" as="geometry" />
        </mxCell>
        <mxCell id="4ptXgkVr047kW3-S0ShK-102" value="" style="rounded=0;whiteSpace=wrap;html=1;shadow=1;glass=0;sketch=1;fillColor=#f5f5f5;strokeColor=#666666;fontColor=#333333;" parent="1" vertex="1">
          <mxGeometry x="535" y="509" width="30" height="30" as="geometry" />
        </mxCell>
        <mxCell id="4ptXgkVr047kW3-S0ShK-103" value="" style="rounded=0;whiteSpace=wrap;html=1;shadow=1;glass=0;sketch=1;fillColor=#f5f5f5;strokeColor=#666666;fontColor=#333333;" parent="1" vertex="1">
          <mxGeometry x="505" y="509" width="30" height="30" as="geometry" />
        </mxCell>
        <mxCell id="4ptXgkVr047kW3-S0ShK-104" value="" style="rounded=0;whiteSpace=wrap;html=1;shadow=1;glass=0;sketch=1;fillColor=#f5f5f5;strokeColor=#666666;fontColor=#333333;" parent="1" vertex="1">
          <mxGeometry x="565" y="509" width="30" height="30" as="geometry" />
        </mxCell>
        <mxCell id="4ptXgkVr047kW3-S0ShK-127" style="edgeStyle=none;rounded=1;jumpSize=20;orthogonalLoop=1;jettySize=auto;html=1;entryX=0;entryY=0;entryDx=0;entryDy=0;strokeWidth=1;exitX=1;exitY=1;exitDx=0;exitDy=0;" parent="1" source="4ptXgkVr047kW3-S0ShK-105" edge="1">
          <mxGeometry relative="1" as="geometry">
            <mxPoint x="735" y="509" as="targetPoint" />
          </mxGeometry>
        </mxCell>
        <mxCell id="4ptXgkVr047kW3-S0ShK-105" value="" style="rounded=0;whiteSpace=wrap;html=1;shadow=1;glass=0;sketch=1;fillColor=#f5f5f5;strokeColor=#666666;fontColor=#333333;" parent="1" vertex="1">
          <mxGeometry x="625" y="479" width="30" height="30" as="geometry" />
        </mxCell>
        <mxCell id="4ptXgkVr047kW3-S0ShK-106" value="" style="rounded=0;whiteSpace=wrap;html=1;shadow=1;glass=0;sketch=1;fillColor=#f5f5f5;strokeColor=#666666;fontColor=#333333;" parent="1" vertex="1">
          <mxGeometry x="595" y="509" width="30" height="30" as="geometry" />
        </mxCell>
        <mxCell id="4ptXgkVr047kW3-S0ShK-107" value="" style="rounded=0;whiteSpace=wrap;html=1;shadow=1;glass=0;sketch=1;fillColor=#f5f5f5;strokeColor=#666666;fontColor=#333333;" parent="1" vertex="1">
          <mxGeometry x="595" y="479" width="30" height="30" as="geometry" />
        </mxCell>
        <mxCell id="4ptXgkVr047kW3-S0ShK-108" value="" style="rounded=0;whiteSpace=wrap;html=1;shadow=1;glass=0;sketch=1;fillColor=#f5f5f5;strokeColor=#666666;fontColor=#333333;" parent="1" vertex="1">
          <mxGeometry x="625" y="509" width="30" height="30" as="geometry" />
        </mxCell>
        <mxCell id="4ptXgkVr047kW3-S0ShK-109" value="" style="rounded=0;whiteSpace=wrap;html=1;shadow=1;glass=0;sketch=1;fillColor=#f5f5f5;strokeColor=#666666;fontColor=#333333;" parent="1" vertex="1">
          <mxGeometry x="445" y="539" width="30" height="30" as="geometry" />
        </mxCell>
        <mxCell id="4ptXgkVr047kW3-S0ShK-110" value="" style="rounded=0;whiteSpace=wrap;html=1;shadow=1;glass=0;sketch=1;fillColor=#f5f5f5;strokeColor=#666666;fontColor=#333333;" parent="1" vertex="1">
          <mxGeometry x="415" y="539" width="30" height="30" as="geometry" />
        </mxCell>
        <mxCell id="4ptXgkVr047kW3-S0ShK-111" value="" style="rounded=0;whiteSpace=wrap;html=1;shadow=1;glass=0;sketch=1;fillColor=#f5f5f5;strokeColor=#666666;fontColor=#333333;" parent="1" vertex="1">
          <mxGeometry x="475" y="539" width="30" height="30" as="geometry" />
        </mxCell>
        <mxCell id="4ptXgkVr047kW3-S0ShK-112" value="" style="rounded=0;whiteSpace=wrap;html=1;shadow=1;glass=0;sketch=1;fillColor=#f5f5f5;strokeColor=#666666;fontColor=#333333;" parent="1" vertex="1">
          <mxGeometry x="535" y="539" width="30" height="30" as="geometry" />
        </mxCell>
        <mxCell id="4ptXgkVr047kW3-S0ShK-113" value="" style="rounded=0;whiteSpace=wrap;html=1;shadow=1;glass=0;sketch=1;fillColor=#f5f5f5;strokeColor=#666666;fontColor=#333333;" parent="1" vertex="1">
          <mxGeometry x="505" y="539" width="30" height="30" as="geometry" />
        </mxCell>
        <mxCell id="4ptXgkVr047kW3-S0ShK-114" value="" style="rounded=0;whiteSpace=wrap;html=1;shadow=1;glass=0;sketch=1;fillColor=#f5f5f5;strokeColor=#666666;fontColor=#333333;" parent="1" vertex="1">
          <mxGeometry x="565" y="539" width="30" height="30" as="geometry" />
        </mxCell>
        <mxCell id="4ptXgkVr047kW3-S0ShK-115" value="" style="rounded=0;whiteSpace=wrap;html=1;shadow=1;glass=0;sketch=1;fillColor=#f5f5f5;strokeColor=#666666;fontColor=#333333;" parent="1" vertex="1">
          <mxGeometry x="445" y="569" width="30" height="30" as="geometry" />
        </mxCell>
        <mxCell id="4ptXgkVr047kW3-S0ShK-116" value="" style="rounded=0;whiteSpace=wrap;html=1;shadow=1;glass=0;sketch=1;fillColor=#f5f5f5;strokeColor=#666666;fontColor=#333333;" parent="1" vertex="1">
          <mxGeometry x="415" y="569" width="30" height="30" as="geometry" />
        </mxCell>
        <mxCell id="4ptXgkVr047kW3-S0ShK-117" value="" style="rounded=0;whiteSpace=wrap;html=1;shadow=1;glass=0;sketch=1;fillColor=#f5f5f5;strokeColor=#666666;fontColor=#333333;" parent="1" vertex="1">
          <mxGeometry x="475" y="569" width="30" height="30" as="geometry" />
        </mxCell>
        <mxCell id="4ptXgkVr047kW3-S0ShK-118" value="" style="rounded=0;whiteSpace=wrap;html=1;shadow=1;glass=0;sketch=1;fillColor=#f5f5f5;strokeColor=#666666;fontColor=#333333;" parent="1" vertex="1">
          <mxGeometry x="535" y="569" width="30" height="30" as="geometry" />
        </mxCell>
        <mxCell id="4ptXgkVr047kW3-S0ShK-119" value="" style="rounded=0;whiteSpace=wrap;html=1;shadow=1;glass=0;sketch=1;fillColor=#f5f5f5;strokeColor=#666666;fontColor=#333333;" parent="1" vertex="1">
          <mxGeometry x="505" y="569" width="30" height="30" as="geometry" />
        </mxCell>
        <mxCell id="4ptXgkVr047kW3-S0ShK-120" value="" style="rounded=0;whiteSpace=wrap;html=1;shadow=1;glass=0;sketch=1;fillColor=#f5f5f5;strokeColor=#666666;fontColor=#333333;" parent="1" vertex="1">
          <mxGeometry x="565" y="569" width="30" height="30" as="geometry" />
        </mxCell>
        <mxCell id="4ptXgkVr047kW3-S0ShK-121" value="" style="rounded=0;whiteSpace=wrap;html=1;shadow=1;glass=0;sketch=1;fillColor=#f5f5f5;strokeColor=#666666;fontColor=#333333;" parent="1" vertex="1">
          <mxGeometry x="625" y="539" width="30" height="30" as="geometry" />
        </mxCell>
        <mxCell id="4ptXgkVr047kW3-S0ShK-122" value="" style="rounded=0;whiteSpace=wrap;html=1;shadow=1;glass=0;sketch=1;fillColor=#f5f5f5;strokeColor=#666666;fontColor=#333333;" parent="1" vertex="1">
          <mxGeometry x="595" y="569" width="30" height="30" as="geometry" />
        </mxCell>
        <mxCell id="4ptXgkVr047kW3-S0ShK-123" value="" style="rounded=0;whiteSpace=wrap;html=1;shadow=1;glass=0;sketch=1;fillColor=#f5f5f5;strokeColor=#666666;fontColor=#333333;" parent="1" vertex="1">
          <mxGeometry x="595" y="539" width="30" height="30" as="geometry" />
        </mxCell>
        <mxCell id="4ptXgkVr047kW3-S0ShK-124" value="" style="rounded=0;whiteSpace=wrap;html=1;shadow=1;glass=0;sketch=1;fillColor=#f5f5f5;strokeColor=#666666;fontColor=#333333;" parent="1" vertex="1">
          <mxGeometry x="625" y="569" width="30" height="30" as="geometry" />
        </mxCell>
        <mxCell id="4ptXgkVr047kW3-S0ShK-125" value="&lt;div&gt;embedding layer&lt;/div&gt;" style="text;html=1;strokeColor=none;fillColor=none;align=center;verticalAlign=middle;whiteSpace=wrap;rounded=0;" parent="1" vertex="1">
          <mxGeometry x="470" y="609" width="160" height="20" as="geometry" />
        </mxCell>
        <mxCell id="VluUykrjsXQZkPM-GQT4-1" value="" style="rounded=0;whiteSpace=wrap;html=1;fillColor=#dae8fc;strokeColor=#6c8ebf;" vertex="1" parent="1">
          <mxGeometry x="735" y="117.5" width="40" height="40" as="geometry" />
        </mxCell>
        <mxCell id="VluUykrjsXQZkPM-GQT4-2" value="" style="rounded=0;whiteSpace=wrap;html=1;fillColor=#dae8fc;strokeColor=#6c8ebf;" vertex="1" parent="1">
          <mxGeometry x="775" y="117.5" width="40" height="40" as="geometry" />
        </mxCell>
        <mxCell id="VluUykrjsXQZkPM-GQT4-3" value="" style="rounded=0;whiteSpace=wrap;html=1;fillColor=#dae8fc;strokeColor=#6c8ebf;" vertex="1" parent="1">
          <mxGeometry x="815" y="117.5" width="40" height="40" as="geometry" />
        </mxCell>
        <mxCell id="VluUykrjsXQZkPM-GQT4-4" value="" style="rounded=0;whiteSpace=wrap;html=1;fillColor=#dae8fc;strokeColor=#6c8ebf;" vertex="1" parent="1">
          <mxGeometry x="855" y="117.5" width="40" height="40" as="geometry" />
        </mxCell>
        <mxCell id="VluUykrjsXQZkPM-GQT4-5" value="" style="rounded=0;whiteSpace=wrap;html=1;fillColor=#dae8fc;strokeColor=#6c8ebf;" vertex="1" parent="1">
          <mxGeometry x="735" y="157.5" width="40" height="40" as="geometry" />
        </mxCell>
        <mxCell id="VluUykrjsXQZkPM-GQT4-6" value="" style="rounded=0;whiteSpace=wrap;html=1;fillColor=#dae8fc;strokeColor=#6c8ebf;" vertex="1" parent="1">
          <mxGeometry x="775" y="157.5" width="40" height="40" as="geometry" />
        </mxCell>
        <mxCell id="VluUykrjsXQZkPM-GQT4-7" value="" style="rounded=0;whiteSpace=wrap;html=1;fillColor=#dae8fc;strokeColor=#6c8ebf;" vertex="1" parent="1">
          <mxGeometry x="815" y="157.5" width="40" height="40" as="geometry" />
        </mxCell>
        <mxCell id="VluUykrjsXQZkPM-GQT4-8" value="" style="rounded=0;whiteSpace=wrap;html=1;fillColor=#dae8fc;strokeColor=#6c8ebf;" vertex="1" parent="1">
          <mxGeometry x="855" y="157.5" width="40" height="40" as="geometry" />
        </mxCell>
        <mxCell id="VluUykrjsXQZkPM-GQT4-9" value="" style="rounded=0;whiteSpace=wrap;html=1;fillColor=#dae8fc;strokeColor=#6c8ebf;" vertex="1" parent="1">
          <mxGeometry x="895" y="157.5" width="40" height="40" as="geometry" />
        </mxCell>
        <mxCell id="VluUykrjsXQZkPM-GQT4-10" value="" style="rounded=0;whiteSpace=wrap;html=1;fillColor=#dae8fc;strokeColor=#6c8ebf;" vertex="1" parent="1">
          <mxGeometry x="735" y="197.5" width="40" height="40" as="geometry" />
        </mxCell>
        <mxCell id="VluUykrjsXQZkPM-GQT4-11" value="" style="rounded=0;whiteSpace=wrap;html=1;fillColor=#dae8fc;strokeColor=#6c8ebf;" vertex="1" parent="1">
          <mxGeometry x="775" y="197.5" width="40" height="40" as="geometry" />
        </mxCell>
        <mxCell id="VluUykrjsXQZkPM-GQT4-12" value="" style="rounded=0;whiteSpace=wrap;html=1;fillColor=#dae8fc;strokeColor=#6c8ebf;" vertex="1" parent="1">
          <mxGeometry x="815" y="197.5" width="40" height="40" as="geometry" />
        </mxCell>
        <mxCell id="VluUykrjsXQZkPM-GQT4-13" value="" style="rounded=0;whiteSpace=wrap;html=1;fillColor=#dae8fc;strokeColor=#6c8ebf;" vertex="1" parent="1">
          <mxGeometry x="855" y="197.5" width="40" height="40" as="geometry" />
        </mxCell>
        <mxCell id="VluUykrjsXQZkPM-GQT4-14" value="" style="rounded=0;whiteSpace=wrap;html=1;fillColor=#dae8fc;strokeColor=#6c8ebf;" vertex="1" parent="1">
          <mxGeometry x="895" y="197.5" width="40" height="40" as="geometry" />
        </mxCell>
        <mxCell id="VluUykrjsXQZkPM-GQT4-15" value="" style="rounded=0;whiteSpace=wrap;html=1;fillColor=#dae8fc;strokeColor=#6c8ebf;" vertex="1" parent="1">
          <mxGeometry x="735" y="237.5" width="40" height="40" as="geometry" />
        </mxCell>
        <mxCell id="VluUykrjsXQZkPM-GQT4-16" value="" style="rounded=0;whiteSpace=wrap;html=1;fillColor=#dae8fc;strokeColor=#6c8ebf;" vertex="1" parent="1">
          <mxGeometry x="775" y="237.5" width="40" height="40" as="geometry" />
        </mxCell>
        <mxCell id="VluUykrjsXQZkPM-GQT4-17" value="" style="rounded=0;whiteSpace=wrap;html=1;fillColor=#dae8fc;strokeColor=#6c8ebf;" vertex="1" parent="1">
          <mxGeometry x="815" y="237.5" width="40" height="40" as="geometry" />
        </mxCell>
        <mxCell id="VluUykrjsXQZkPM-GQT4-18" value="" style="rounded=0;whiteSpace=wrap;html=1;fillColor=#dae8fc;strokeColor=#6c8ebf;" vertex="1" parent="1">
          <mxGeometry x="855" y="237.5" width="40" height="40" as="geometry" />
        </mxCell>
        <mxCell id="VluUykrjsXQZkPM-GQT4-19" value="" style="rounded=0;whiteSpace=wrap;html=1;fillColor=#dae8fc;strokeColor=#6c8ebf;" vertex="1" parent="1">
          <mxGeometry x="895" y="237.5" width="40" height="40" as="geometry" />
        </mxCell>
        <mxCell id="VluUykrjsXQZkPM-GQT4-20" value="" style="rounded=0;whiteSpace=wrap;html=1;fillColor=#d5e8d4;strokeColor=#82b366;" vertex="1" parent="1">
          <mxGeometry x="745" y="127.5" width="40" height="40" as="geometry" />
        </mxCell>
        <mxCell id="VluUykrjsXQZkPM-GQT4-21" value="" style="rounded=0;whiteSpace=wrap;html=1;fillColor=#d5e8d4;strokeColor=#82b366;" vertex="1" parent="1">
          <mxGeometry x="785" y="127.5" width="40" height="40" as="geometry" />
        </mxCell>
        <mxCell id="VluUykrjsXQZkPM-GQT4-22" value="" style="rounded=0;whiteSpace=wrap;html=1;fillColor=#d5e8d4;strokeColor=#82b366;" vertex="1" parent="1">
          <mxGeometry x="825" y="127.5" width="40" height="40" as="geometry" />
        </mxCell>
        <mxCell id="VluUykrjsXQZkPM-GQT4-23" value="" style="rounded=0;whiteSpace=wrap;html=1;fillColor=#d5e8d4;strokeColor=#82b366;" vertex="1" parent="1">
          <mxGeometry x="865" y="127.5" width="40" height="40" as="geometry" />
        </mxCell>
        <mxCell id="VluUykrjsXQZkPM-GQT4-24" value="" style="rounded=0;whiteSpace=wrap;html=1;fillColor=#d5e8d4;strokeColor=#82b366;" vertex="1" parent="1">
          <mxGeometry x="745" y="167.5" width="40" height="40" as="geometry" />
        </mxCell>
        <mxCell id="VluUykrjsXQZkPM-GQT4-25" value="" style="rounded=0;whiteSpace=wrap;html=1;fillColor=#d5e8d4;strokeColor=#82b366;" vertex="1" parent="1">
          <mxGeometry x="785" y="167.5" width="40" height="40" as="geometry" />
        </mxCell>
        <mxCell id="VluUykrjsXQZkPM-GQT4-26" value="" style="rounded=0;whiteSpace=wrap;html=1;fillColor=#d5e8d4;strokeColor=#82b366;" vertex="1" parent="1">
          <mxGeometry x="825" y="167.5" width="40" height="40" as="geometry" />
        </mxCell>
        <mxCell id="VluUykrjsXQZkPM-GQT4-27" value="" style="rounded=0;whiteSpace=wrap;html=1;fillColor=#d5e8d4;strokeColor=#82b366;" vertex="1" parent="1">
          <mxGeometry x="865" y="167.5" width="40" height="40" as="geometry" />
        </mxCell>
        <mxCell id="VluUykrjsXQZkPM-GQT4-28" value="" style="rounded=0;whiteSpace=wrap;html=1;fillColor=#d5e8d4;strokeColor=#82b366;" vertex="1" parent="1">
          <mxGeometry x="905" y="167.5" width="40" height="40" as="geometry" />
        </mxCell>
        <mxCell id="VluUykrjsXQZkPM-GQT4-29" value="" style="rounded=0;whiteSpace=wrap;html=1;fillColor=#d5e8d4;strokeColor=#82b366;" vertex="1" parent="1">
          <mxGeometry x="745" y="207.5" width="40" height="40" as="geometry" />
        </mxCell>
        <mxCell id="VluUykrjsXQZkPM-GQT4-30" value="" style="rounded=0;whiteSpace=wrap;html=1;fillColor=#d5e8d4;strokeColor=#82b366;" vertex="1" parent="1">
          <mxGeometry x="785" y="207.5" width="40" height="40" as="geometry" />
        </mxCell>
        <mxCell id="VluUykrjsXQZkPM-GQT4-31" value="" style="rounded=0;whiteSpace=wrap;html=1;fillColor=#d5e8d4;strokeColor=#82b366;" vertex="1" parent="1">
          <mxGeometry x="825" y="207.5" width="40" height="40" as="geometry" />
        </mxCell>
        <mxCell id="VluUykrjsXQZkPM-GQT4-32" value="" style="rounded=0;whiteSpace=wrap;html=1;fillColor=#d5e8d4;strokeColor=#82b366;" vertex="1" parent="1">
          <mxGeometry x="865" y="207.5" width="40" height="40" as="geometry" />
        </mxCell>
        <mxCell id="VluUykrjsXQZkPM-GQT4-33" value="" style="rounded=0;whiteSpace=wrap;html=1;fillColor=#d5e8d4;strokeColor=#82b366;" vertex="1" parent="1">
          <mxGeometry x="905" y="207.5" width="40" height="40" as="geometry" />
        </mxCell>
        <mxCell id="VluUykrjsXQZkPM-GQT4-34" value="" style="rounded=0;whiteSpace=wrap;html=1;fillColor=#d5e8d4;strokeColor=#82b366;" vertex="1" parent="1">
          <mxGeometry x="745" y="247.5" width="40" height="40" as="geometry" />
        </mxCell>
        <mxCell id="VluUykrjsXQZkPM-GQT4-35" value="" style="rounded=0;whiteSpace=wrap;html=1;fillColor=#d5e8d4;strokeColor=#82b366;" vertex="1" parent="1">
          <mxGeometry x="785" y="247.5" width="40" height="40" as="geometry" />
        </mxCell>
        <mxCell id="VluUykrjsXQZkPM-GQT4-36" value="" style="rounded=0;whiteSpace=wrap;html=1;fillColor=#d5e8d4;strokeColor=#82b366;" vertex="1" parent="1">
          <mxGeometry x="825" y="247.5" width="40" height="40" as="geometry" />
        </mxCell>
        <mxCell id="VluUykrjsXQZkPM-GQT4-37" value="" style="rounded=0;whiteSpace=wrap;html=1;fillColor=#d5e8d4;strokeColor=#82b366;" vertex="1" parent="1">
          <mxGeometry x="865" y="247.5" width="40" height="40" as="geometry" />
        </mxCell>
        <mxCell id="VluUykrjsXQZkPM-GQT4-38" value="" style="rounded=0;whiteSpace=wrap;html=1;fillColor=#d5e8d4;strokeColor=#82b366;" vertex="1" parent="1">
          <mxGeometry x="905" y="247.5" width="40" height="40" as="geometry" />
        </mxCell>
        <mxCell id="VluUykrjsXQZkPM-GQT4-39" value="" style="rounded=0;whiteSpace=wrap;html=1;fillColor=#ffe6cc;strokeColor=#d79b00;" vertex="1" parent="1">
          <mxGeometry x="755" y="137.5" width="40" height="40" as="geometry" />
        </mxCell>
        <mxCell id="VluUykrjsXQZkPM-GQT4-40" value="" style="rounded=0;whiteSpace=wrap;html=1;fillColor=#ffe6cc;strokeColor=#d79b00;" vertex="1" parent="1">
          <mxGeometry x="795" y="137.5" width="40" height="40" as="geometry" />
        </mxCell>
        <mxCell id="VluUykrjsXQZkPM-GQT4-41" value="" style="rounded=0;whiteSpace=wrap;html=1;fillColor=#ffe6cc;strokeColor=#d79b00;" vertex="1" parent="1">
          <mxGeometry x="835" y="137.5" width="40" height="40" as="geometry" />
        </mxCell>
        <mxCell id="VluUykrjsXQZkPM-GQT4-42" value="" style="rounded=0;whiteSpace=wrap;html=1;fillColor=#ffe6cc;strokeColor=#d79b00;" vertex="1" parent="1">
          <mxGeometry x="875" y="137.5" width="40" height="40" as="geometry" />
        </mxCell>
        <mxCell id="VluUykrjsXQZkPM-GQT4-43" value="" style="rounded=0;whiteSpace=wrap;html=1;fillColor=#ffe6cc;strokeColor=#d79b00;" vertex="1" parent="1">
          <mxGeometry x="755" y="177.5" width="40" height="40" as="geometry" />
        </mxCell>
        <mxCell id="VluUykrjsXQZkPM-GQT4-44" value="" style="rounded=0;whiteSpace=wrap;html=1;fillColor=#ffe6cc;strokeColor=#d79b00;" vertex="1" parent="1">
          <mxGeometry x="795" y="177.5" width="40" height="40" as="geometry" />
        </mxCell>
        <mxCell id="VluUykrjsXQZkPM-GQT4-45" value="" style="rounded=0;whiteSpace=wrap;html=1;fillColor=#ffe6cc;strokeColor=#d79b00;" vertex="1" parent="1">
          <mxGeometry x="835" y="177.5" width="40" height="40" as="geometry" />
        </mxCell>
        <mxCell id="VluUykrjsXQZkPM-GQT4-46" value="" style="rounded=0;whiteSpace=wrap;html=1;fillColor=#ffe6cc;strokeColor=#d79b00;" vertex="1" parent="1">
          <mxGeometry x="875" y="177.5" width="40" height="40" as="geometry" />
        </mxCell>
        <mxCell id="VluUykrjsXQZkPM-GQT4-47" value="" style="rounded=0;whiteSpace=wrap;html=1;fillColor=#ffe6cc;strokeColor=#d79b00;" vertex="1" parent="1">
          <mxGeometry x="755" y="217.5" width="40" height="40" as="geometry" />
        </mxCell>
        <mxCell id="VluUykrjsXQZkPM-GQT4-48" value="" style="rounded=0;whiteSpace=wrap;html=1;fillColor=#ffe6cc;strokeColor=#d79b00;" vertex="1" parent="1">
          <mxGeometry x="795" y="217.5" width="40" height="40" as="geometry" />
        </mxCell>
        <mxCell id="VluUykrjsXQZkPM-GQT4-49" value="" style="rounded=0;whiteSpace=wrap;html=1;fillColor=#ffe6cc;strokeColor=#d79b00;" vertex="1" parent="1">
          <mxGeometry x="835" y="217.5" width="40" height="40" as="geometry" />
        </mxCell>
        <mxCell id="VluUykrjsXQZkPM-GQT4-50" value="" style="rounded=0;whiteSpace=wrap;html=1;fillColor=#ffe6cc;strokeColor=#d79b00;" vertex="1" parent="1">
          <mxGeometry x="875" y="217.5" width="40" height="40" as="geometry" />
        </mxCell>
        <mxCell id="VluUykrjsXQZkPM-GQT4-51" value="" style="rounded=0;whiteSpace=wrap;html=1;fillColor=#ffe6cc;strokeColor=#d79b00;" vertex="1" parent="1">
          <mxGeometry x="755" y="257.5" width="40" height="40" as="geometry" />
        </mxCell>
        <mxCell id="VluUykrjsXQZkPM-GQT4-52" value="" style="rounded=0;whiteSpace=wrap;html=1;fillColor=#ffe6cc;strokeColor=#d79b00;" vertex="1" parent="1">
          <mxGeometry x="795" y="257.5" width="40" height="40" as="geometry" />
        </mxCell>
        <mxCell id="VluUykrjsXQZkPM-GQT4-53" value="" style="rounded=0;whiteSpace=wrap;html=1;fillColor=#ffe6cc;strokeColor=#d79b00;" vertex="1" parent="1">
          <mxGeometry x="835" y="257.5" width="40" height="40" as="geometry" />
        </mxCell>
        <mxCell id="VluUykrjsXQZkPM-GQT4-54" value="" style="rounded=0;whiteSpace=wrap;html=1;fillColor=#ffe6cc;strokeColor=#d79b00;" vertex="1" parent="1">
          <mxGeometry x="875" y="257.5" width="40" height="40" as="geometry" />
        </mxCell>
        <mxCell id="VluUykrjsXQZkPM-GQT4-55" value="" style="rounded=0;whiteSpace=wrap;html=1;fillColor=#fff2cc;strokeColor=#d6b656;" vertex="1" parent="1">
          <mxGeometry x="765" y="147.5" width="40" height="40" as="geometry" />
        </mxCell>
        <mxCell id="VluUykrjsXQZkPM-GQT4-56" value="" style="rounded=0;whiteSpace=wrap;html=1;fillColor=#fff2cc;strokeColor=#d6b656;" vertex="1" parent="1">
          <mxGeometry x="805" y="147.5" width="40" height="40" as="geometry" />
        </mxCell>
        <mxCell id="VluUykrjsXQZkPM-GQT4-57" value="" style="rounded=0;whiteSpace=wrap;html=1;fillColor=#fff2cc;strokeColor=#d6b656;" vertex="1" parent="1">
          <mxGeometry x="845" y="147.5" width="40" height="40" as="geometry" />
        </mxCell>
        <mxCell id="VluUykrjsXQZkPM-GQT4-58" value="" style="rounded=0;whiteSpace=wrap;html=1;fillColor=#fff2cc;strokeColor=#d6b656;" vertex="1" parent="1">
          <mxGeometry x="885" y="147.5" width="40" height="40" as="geometry" />
        </mxCell>
        <mxCell id="VluUykrjsXQZkPM-GQT4-59" value="" style="rounded=0;whiteSpace=wrap;html=1;fillColor=#fff2cc;strokeColor=#d6b656;" vertex="1" parent="1">
          <mxGeometry x="765" y="187.5" width="40" height="40" as="geometry" />
        </mxCell>
        <mxCell id="VluUykrjsXQZkPM-GQT4-60" value="" style="rounded=0;whiteSpace=wrap;html=1;fillColor=#fff2cc;strokeColor=#d6b656;" vertex="1" parent="1">
          <mxGeometry x="805" y="187.5" width="40" height="40" as="geometry" />
        </mxCell>
        <mxCell id="VluUykrjsXQZkPM-GQT4-61" value="" style="rounded=0;whiteSpace=wrap;html=1;fillColor=#fff2cc;strokeColor=#d6b656;" vertex="1" parent="1">
          <mxGeometry x="845" y="187.5" width="40" height="40" as="geometry" />
        </mxCell>
        <mxCell id="VluUykrjsXQZkPM-GQT4-62" value="" style="rounded=0;whiteSpace=wrap;html=1;fillColor=#fff2cc;strokeColor=#d6b656;" vertex="1" parent="1">
          <mxGeometry x="885" y="187.5" width="40" height="40" as="geometry" />
        </mxCell>
        <mxCell id="VluUykrjsXQZkPM-GQT4-63" value="" style="rounded=0;whiteSpace=wrap;html=1;fillColor=#fff2cc;strokeColor=#d6b656;" vertex="1" parent="1">
          <mxGeometry x="765" y="227.5" width="40" height="40" as="geometry" />
        </mxCell>
        <mxCell id="VluUykrjsXQZkPM-GQT4-64" value="" style="rounded=0;whiteSpace=wrap;html=1;fillColor=#fff2cc;strokeColor=#d6b656;" vertex="1" parent="1">
          <mxGeometry x="805" y="227.5" width="40" height="40" as="geometry" />
        </mxCell>
        <mxCell id="VluUykrjsXQZkPM-GQT4-65" value="" style="rounded=0;whiteSpace=wrap;html=1;fillColor=#fff2cc;strokeColor=#d6b656;" vertex="1" parent="1">
          <mxGeometry x="845" y="227.5" width="40" height="40" as="geometry" />
        </mxCell>
        <mxCell id="VluUykrjsXQZkPM-GQT4-66" value="" style="rounded=0;whiteSpace=wrap;html=1;fillColor=#fff2cc;strokeColor=#d6b656;" vertex="1" parent="1">
          <mxGeometry x="885" y="227.5" width="40" height="40" as="geometry" />
        </mxCell>
        <mxCell id="VluUykrjsXQZkPM-GQT4-67" value="" style="rounded=0;whiteSpace=wrap;html=1;fillColor=#fff2cc;strokeColor=#d6b656;" vertex="1" parent="1">
          <mxGeometry x="765" y="267.5" width="40" height="40" as="geometry" />
        </mxCell>
        <mxCell id="VluUykrjsXQZkPM-GQT4-68" value="" style="rounded=0;whiteSpace=wrap;html=1;fillColor=#fff2cc;strokeColor=#d6b656;" vertex="1" parent="1">
          <mxGeometry x="805" y="267.5" width="40" height="40" as="geometry" />
        </mxCell>
        <mxCell id="VluUykrjsXQZkPM-GQT4-69" value="" style="rounded=0;whiteSpace=wrap;html=1;fillColor=#fff2cc;strokeColor=#d6b656;" vertex="1" parent="1">
          <mxGeometry x="845" y="267.5" width="40" height="40" as="geometry" />
        </mxCell>
        <mxCell id="VluUykrjsXQZkPM-GQT4-70" value="" style="rounded=0;whiteSpace=wrap;html=1;fillColor=#fff2cc;strokeColor=#d6b656;" vertex="1" parent="1">
          <mxGeometry x="885" y="267.5" width="40" height="40" as="geometry" />
        </mxCell>
        <mxCell id="VluUykrjsXQZkPM-GQT4-71" value="" style="rounded=0;whiteSpace=wrap;html=1;fillColor=#f8cecc;strokeColor=#b85450;" vertex="1" parent="1">
          <mxGeometry x="775" y="157.5" width="40" height="40" as="geometry" />
        </mxCell>
        <mxCell id="VluUykrjsXQZkPM-GQT4-72" value="" style="rounded=0;whiteSpace=wrap;html=1;fillColor=#f8cecc;strokeColor=#b85450;" vertex="1" parent="1">
          <mxGeometry x="815" y="157.5" width="40" height="40" as="geometry" />
        </mxCell>
        <mxCell id="VluUykrjsXQZkPM-GQT4-73" value="" style="rounded=0;whiteSpace=wrap;html=1;fillColor=#f8cecc;strokeColor=#b85450;" vertex="1" parent="1">
          <mxGeometry x="855" y="157.5" width="40" height="40" as="geometry" />
        </mxCell>
        <mxCell id="VluUykrjsXQZkPM-GQT4-74" value="" style="rounded=0;whiteSpace=wrap;html=1;fillColor=#f8cecc;strokeColor=#b85450;" vertex="1" parent="1">
          <mxGeometry x="895" y="157.5" width="40" height="40" as="geometry" />
        </mxCell>
        <mxCell id="VluUykrjsXQZkPM-GQT4-75" value="" style="rounded=0;whiteSpace=wrap;html=1;fillColor=#f8cecc;strokeColor=#b85450;" vertex="1" parent="1">
          <mxGeometry x="775" y="197.5" width="40" height="40" as="geometry" />
        </mxCell>
        <mxCell id="VluUykrjsXQZkPM-GQT4-76" value="" style="rounded=0;whiteSpace=wrap;html=1;fillColor=#f8cecc;strokeColor=#b85450;" vertex="1" parent="1">
          <mxGeometry x="815" y="197.5" width="40" height="40" as="geometry" />
        </mxCell>
        <mxCell id="VluUykrjsXQZkPM-GQT4-77" value="" style="rounded=0;whiteSpace=wrap;html=1;fillColor=#f8cecc;strokeColor=#b85450;" vertex="1" parent="1">
          <mxGeometry x="855" y="197.5" width="40" height="40" as="geometry" />
        </mxCell>
        <mxCell id="VluUykrjsXQZkPM-GQT4-78" value="" style="rounded=0;whiteSpace=wrap;html=1;fillColor=#f8cecc;strokeColor=#b85450;" vertex="1" parent="1">
          <mxGeometry x="895" y="197.5" width="40" height="40" as="geometry" />
        </mxCell>
        <mxCell id="VluUykrjsXQZkPM-GQT4-79" value="" style="rounded=0;whiteSpace=wrap;html=1;fillColor=#f8cecc;strokeColor=#b85450;" vertex="1" parent="1">
          <mxGeometry x="775" y="237.5" width="40" height="40" as="geometry" />
        </mxCell>
        <mxCell id="VluUykrjsXQZkPM-GQT4-80" value="" style="rounded=0;whiteSpace=wrap;html=1;fillColor=#f8cecc;strokeColor=#b85450;" vertex="1" parent="1">
          <mxGeometry x="815" y="237.5" width="40" height="40" as="geometry" />
        </mxCell>
        <mxCell id="VluUykrjsXQZkPM-GQT4-81" value="" style="rounded=0;whiteSpace=wrap;html=1;fillColor=#f8cecc;strokeColor=#b85450;" vertex="1" parent="1">
          <mxGeometry x="855" y="237.5" width="40" height="40" as="geometry" />
        </mxCell>
        <mxCell id="VluUykrjsXQZkPM-GQT4-82" value="" style="rounded=0;whiteSpace=wrap;html=1;fillColor=#f8cecc;strokeColor=#b85450;" vertex="1" parent="1">
          <mxGeometry x="895" y="237.5" width="40" height="40" as="geometry" />
        </mxCell>
        <mxCell id="VluUykrjsXQZkPM-GQT4-83" value="" style="rounded=0;whiteSpace=wrap;html=1;fillColor=#f8cecc;strokeColor=#b85450;" vertex="1" parent="1">
          <mxGeometry x="775" y="277.5" width="40" height="40" as="geometry" />
        </mxCell>
        <mxCell id="VluUykrjsXQZkPM-GQT4-84" value="" style="rounded=0;whiteSpace=wrap;html=1;fillColor=#f8cecc;strokeColor=#b85450;" vertex="1" parent="1">
          <mxGeometry x="815" y="277.5" width="40" height="40" as="geometry" />
        </mxCell>
        <mxCell id="VluUykrjsXQZkPM-GQT4-85" value="" style="rounded=0;whiteSpace=wrap;html=1;fillColor=#f8cecc;strokeColor=#b85450;" vertex="1" parent="1">
          <mxGeometry x="855" y="277.5" width="40" height="40" as="geometry" />
        </mxCell>
        <mxCell id="VluUykrjsXQZkPM-GQT4-86" value="" style="rounded=0;whiteSpace=wrap;html=1;fillColor=#f8cecc;strokeColor=#b85450;" vertex="1" parent="1">
          <mxGeometry x="895" y="277.5" width="40" height="40" as="geometry" />
        </mxCell>
        <mxCell id="VluUykrjsXQZkPM-GQT4-87" value="" style="rounded=0;whiteSpace=wrap;html=1;fillColor=#e1d5e7;strokeColor=#9673a6;" vertex="1" parent="1">
          <mxGeometry x="785" y="167.5" width="40" height="40" as="geometry" />
        </mxCell>
        <mxCell id="VluUykrjsXQZkPM-GQT4-88" value="" style="rounded=0;whiteSpace=wrap;html=1;fillColor=#e1d5e7;strokeColor=#9673a6;" vertex="1" parent="1">
          <mxGeometry x="825" y="167.5" width="40" height="40" as="geometry" />
        </mxCell>
        <mxCell id="VluUykrjsXQZkPM-GQT4-89" value="" style="rounded=0;whiteSpace=wrap;html=1;fillColor=#e1d5e7;strokeColor=#9673a6;" vertex="1" parent="1">
          <mxGeometry x="865" y="167.5" width="40" height="40" as="geometry" />
        </mxCell>
        <mxCell id="VluUykrjsXQZkPM-GQT4-90" value="" style="rounded=0;whiteSpace=wrap;html=1;fillColor=#e1d5e7;strokeColor=#9673a6;" vertex="1" parent="1">
          <mxGeometry x="905" y="167.5" width="40" height="40" as="geometry" />
        </mxCell>
        <mxCell id="VluUykrjsXQZkPM-GQT4-91" value="" style="rounded=0;whiteSpace=wrap;html=1;fillColor=#e1d5e7;strokeColor=#9673a6;" vertex="1" parent="1">
          <mxGeometry x="785" y="207.5" width="40" height="40" as="geometry" />
        </mxCell>
        <mxCell id="VluUykrjsXQZkPM-GQT4-92" value="" style="rounded=0;whiteSpace=wrap;html=1;fillColor=#e1d5e7;strokeColor=#9673a6;" vertex="1" parent="1">
          <mxGeometry x="825" y="207.5" width="40" height="40" as="geometry" />
        </mxCell>
        <mxCell id="VluUykrjsXQZkPM-GQT4-93" value="" style="rounded=0;whiteSpace=wrap;html=1;fillColor=#e1d5e7;strokeColor=#9673a6;" vertex="1" parent="1">
          <mxGeometry x="865" y="207.5" width="40" height="40" as="geometry" />
        </mxCell>
        <mxCell id="VluUykrjsXQZkPM-GQT4-94" style="edgeStyle=orthogonalEdgeStyle;curved=1;rounded=0;orthogonalLoop=1;jettySize=auto;html=1;entryX=0;entryY=0.5;entryDx=0;entryDy=0;exitX=1;exitY=0;exitDx=0;exitDy=0;" edge="1" parent="1" source="VluUykrjsXQZkPM-GQT4-99" target="VluUykrjsXQZkPM-GQT4-218">
          <mxGeometry relative="1" as="geometry">
            <Array as="points">
              <mxPoint x="1025" y="247.5" />
              <mxPoint x="1025" y="406.5" />
            </Array>
          </mxGeometry>
        </mxCell>
        <mxCell id="VluUykrjsXQZkPM-GQT4-95" value="" style="rounded=0;whiteSpace=wrap;html=1;fillColor=#e1d5e7;strokeColor=#9673a6;" vertex="1" parent="1">
          <mxGeometry x="905" y="207.5" width="40" height="40" as="geometry" />
        </mxCell>
        <mxCell id="VluUykrjsXQZkPM-GQT4-96" value="" style="rounded=0;whiteSpace=wrap;html=1;fillColor=#e1d5e7;strokeColor=#9673a6;" vertex="1" parent="1">
          <mxGeometry x="785" y="247.5" width="40" height="40" as="geometry" />
        </mxCell>
        <mxCell id="VluUykrjsXQZkPM-GQT4-97" value="" style="rounded=0;whiteSpace=wrap;html=1;fillColor=#e1d5e7;strokeColor=#9673a6;" vertex="1" parent="1">
          <mxGeometry x="825" y="247.5" width="40" height="40" as="geometry" />
        </mxCell>
        <mxCell id="VluUykrjsXQZkPM-GQT4-98" value="" style="rounded=0;whiteSpace=wrap;html=1;fillColor=#e1d5e7;strokeColor=#9673a6;" vertex="1" parent="1">
          <mxGeometry x="865" y="247.5" width="40" height="40" as="geometry" />
        </mxCell>
        <mxCell id="VluUykrjsXQZkPM-GQT4-99" value="" style="rounded=0;whiteSpace=wrap;html=1;fillColor=#e1d5e7;strokeColor=#9673a6;" vertex="1" parent="1">
          <mxGeometry x="905" y="247.5" width="40" height="40" as="geometry" />
        </mxCell>
        <mxCell id="VluUykrjsXQZkPM-GQT4-100" value="" style="rounded=0;whiteSpace=wrap;html=1;fillColor=#e1d5e7;strokeColor=#9673a6;" vertex="1" parent="1">
          <mxGeometry x="785" y="287.5" width="40" height="40" as="geometry" />
        </mxCell>
        <mxCell id="VluUykrjsXQZkPM-GQT4-101" value="" style="rounded=0;whiteSpace=wrap;html=1;fillColor=#e1d5e7;strokeColor=#9673a6;" vertex="1" parent="1">
          <mxGeometry x="825" y="287.5" width="40" height="40" as="geometry" />
        </mxCell>
        <mxCell id="VluUykrjsXQZkPM-GQT4-102" value="" style="rounded=0;whiteSpace=wrap;html=1;fillColor=#e1d5e7;strokeColor=#9673a6;" vertex="1" parent="1">
          <mxGeometry x="865" y="287.5" width="40" height="40" as="geometry" />
        </mxCell>
        <mxCell id="VluUykrjsXQZkPM-GQT4-103" value="" style="rounded=0;whiteSpace=wrap;html=1;fillColor=#e1d5e7;strokeColor=#9673a6;" vertex="1" parent="1">
          <mxGeometry x="905" y="287.5" width="40" height="40" as="geometry" />
        </mxCell>
        <mxCell id="VluUykrjsXQZkPM-GQT4-104" value="&lt;div&gt;CNN layers&lt;/div&gt;" style="text;html=1;strokeColor=none;fillColor=none;align=center;verticalAlign=middle;whiteSpace=wrap;rounded=0;" vertex="1" parent="1">
          <mxGeometry x="720" y="358.5" width="250" height="20" as="geometry" />
        </mxCell>
        <mxCell id="VluUykrjsXQZkPM-GQT4-105" value="" style="rounded=0;whiteSpace=wrap;html=1;fillColor=#dae8fc;strokeColor=#6c8ebf;" vertex="1" parent="1">
          <mxGeometry x="735" y="429" width="40" height="40" as="geometry" />
        </mxCell>
        <mxCell id="VluUykrjsXQZkPM-GQT4-106" value="" style="rounded=0;whiteSpace=wrap;html=1;fillColor=#dae8fc;strokeColor=#6c8ebf;" vertex="1" parent="1">
          <mxGeometry x="775" y="429" width="40" height="40" as="geometry" />
        </mxCell>
        <mxCell id="VluUykrjsXQZkPM-GQT4-107" value="" style="rounded=0;whiteSpace=wrap;html=1;fillColor=#dae8fc;strokeColor=#6c8ebf;" vertex="1" parent="1">
          <mxGeometry x="815" y="429" width="40" height="40" as="geometry" />
        </mxCell>
        <mxCell id="VluUykrjsXQZkPM-GQT4-108" value="" style="rounded=0;whiteSpace=wrap;html=1;fillColor=#dae8fc;strokeColor=#6c8ebf;" vertex="1" parent="1">
          <mxGeometry x="855" y="429" width="40" height="40" as="geometry" />
        </mxCell>
        <mxCell id="VluUykrjsXQZkPM-GQT4-109" value="" style="rounded=0;whiteSpace=wrap;html=1;fillColor=#dae8fc;strokeColor=#6c8ebf;" vertex="1" parent="1">
          <mxGeometry x="735" y="469" width="40" height="40" as="geometry" />
        </mxCell>
        <mxCell id="VluUykrjsXQZkPM-GQT4-110" value="" style="rounded=0;whiteSpace=wrap;html=1;fillColor=#dae8fc;strokeColor=#6c8ebf;" vertex="1" parent="1">
          <mxGeometry x="775" y="469" width="40" height="40" as="geometry" />
        </mxCell>
        <mxCell id="VluUykrjsXQZkPM-GQT4-111" value="" style="rounded=0;whiteSpace=wrap;html=1;fillColor=#dae8fc;strokeColor=#6c8ebf;" vertex="1" parent="1">
          <mxGeometry x="815" y="469" width="40" height="40" as="geometry" />
        </mxCell>
        <mxCell id="VluUykrjsXQZkPM-GQT4-112" value="" style="rounded=0;whiteSpace=wrap;html=1;fillColor=#dae8fc;strokeColor=#6c8ebf;" vertex="1" parent="1">
          <mxGeometry x="855" y="469" width="40" height="40" as="geometry" />
        </mxCell>
        <mxCell id="VluUykrjsXQZkPM-GQT4-113" value="" style="rounded=0;whiteSpace=wrap;html=1;fillColor=#dae8fc;strokeColor=#6c8ebf;" vertex="1" parent="1">
          <mxGeometry x="895" y="469" width="40" height="40" as="geometry" />
        </mxCell>
        <mxCell id="VluUykrjsXQZkPM-GQT4-114" value="" style="rounded=0;whiteSpace=wrap;html=1;fillColor=#dae8fc;strokeColor=#6c8ebf;" vertex="1" parent="1">
          <mxGeometry x="735" y="509" width="40" height="40" as="geometry" />
        </mxCell>
        <mxCell id="VluUykrjsXQZkPM-GQT4-115" value="" style="rounded=0;whiteSpace=wrap;html=1;fillColor=#dae8fc;strokeColor=#6c8ebf;" vertex="1" parent="1">
          <mxGeometry x="775" y="509" width="40" height="40" as="geometry" />
        </mxCell>
        <mxCell id="VluUykrjsXQZkPM-GQT4-116" value="" style="rounded=0;whiteSpace=wrap;html=1;fillColor=#dae8fc;strokeColor=#6c8ebf;" vertex="1" parent="1">
          <mxGeometry x="815" y="509" width="40" height="40" as="geometry" />
        </mxCell>
        <mxCell id="VluUykrjsXQZkPM-GQT4-117" value="" style="rounded=0;whiteSpace=wrap;html=1;fillColor=#dae8fc;strokeColor=#6c8ebf;" vertex="1" parent="1">
          <mxGeometry x="855" y="509" width="40" height="40" as="geometry" />
        </mxCell>
        <mxCell id="VluUykrjsXQZkPM-GQT4-118" value="" style="rounded=0;whiteSpace=wrap;html=1;fillColor=#dae8fc;strokeColor=#6c8ebf;" vertex="1" parent="1">
          <mxGeometry x="895" y="509" width="40" height="40" as="geometry" />
        </mxCell>
        <mxCell id="VluUykrjsXQZkPM-GQT4-119" value="" style="rounded=0;whiteSpace=wrap;html=1;fillColor=#dae8fc;strokeColor=#6c8ebf;" vertex="1" parent="1">
          <mxGeometry x="735" y="549" width="40" height="40" as="geometry" />
        </mxCell>
        <mxCell id="VluUykrjsXQZkPM-GQT4-120" value="" style="rounded=0;whiteSpace=wrap;html=1;fillColor=#dae8fc;strokeColor=#6c8ebf;" vertex="1" parent="1">
          <mxGeometry x="775" y="549" width="40" height="40" as="geometry" />
        </mxCell>
        <mxCell id="VluUykrjsXQZkPM-GQT4-121" value="" style="rounded=0;whiteSpace=wrap;html=1;fillColor=#dae8fc;strokeColor=#6c8ebf;" vertex="1" parent="1">
          <mxGeometry x="815" y="549" width="40" height="40" as="geometry" />
        </mxCell>
        <mxCell id="VluUykrjsXQZkPM-GQT4-122" value="" style="rounded=0;whiteSpace=wrap;html=1;fillColor=#dae8fc;strokeColor=#6c8ebf;" vertex="1" parent="1">
          <mxGeometry x="855" y="549" width="40" height="40" as="geometry" />
        </mxCell>
        <mxCell id="VluUykrjsXQZkPM-GQT4-123" value="" style="rounded=0;whiteSpace=wrap;html=1;fillColor=#dae8fc;strokeColor=#6c8ebf;" vertex="1" parent="1">
          <mxGeometry x="895" y="549" width="40" height="40" as="geometry" />
        </mxCell>
        <mxCell id="VluUykrjsXQZkPM-GQT4-124" value="" style="rounded=0;whiteSpace=wrap;html=1;fillColor=#d5e8d4;strokeColor=#82b366;" vertex="1" parent="1">
          <mxGeometry x="745" y="439" width="40" height="40" as="geometry" />
        </mxCell>
        <mxCell id="VluUykrjsXQZkPM-GQT4-125" value="" style="rounded=0;whiteSpace=wrap;html=1;fillColor=#d5e8d4;strokeColor=#82b366;" vertex="1" parent="1">
          <mxGeometry x="785" y="439" width="40" height="40" as="geometry" />
        </mxCell>
        <mxCell id="VluUykrjsXQZkPM-GQT4-126" value="" style="rounded=0;whiteSpace=wrap;html=1;fillColor=#d5e8d4;strokeColor=#82b366;" vertex="1" parent="1">
          <mxGeometry x="825" y="439" width="40" height="40" as="geometry" />
        </mxCell>
        <mxCell id="VluUykrjsXQZkPM-GQT4-127" value="" style="rounded=0;whiteSpace=wrap;html=1;fillColor=#d5e8d4;strokeColor=#82b366;" vertex="1" parent="1">
          <mxGeometry x="865" y="439" width="40" height="40" as="geometry" />
        </mxCell>
        <mxCell id="VluUykrjsXQZkPM-GQT4-128" value="" style="rounded=0;whiteSpace=wrap;html=1;fillColor=#d5e8d4;strokeColor=#82b366;" vertex="1" parent="1">
          <mxGeometry x="745" y="479" width="40" height="40" as="geometry" />
        </mxCell>
        <mxCell id="VluUykrjsXQZkPM-GQT4-129" value="" style="rounded=0;whiteSpace=wrap;html=1;fillColor=#d5e8d4;strokeColor=#82b366;" vertex="1" parent="1">
          <mxGeometry x="785" y="479" width="40" height="40" as="geometry" />
        </mxCell>
        <mxCell id="VluUykrjsXQZkPM-GQT4-130" value="" style="rounded=0;whiteSpace=wrap;html=1;fillColor=#d5e8d4;strokeColor=#82b366;" vertex="1" parent="1">
          <mxGeometry x="825" y="479" width="40" height="40" as="geometry" />
        </mxCell>
        <mxCell id="VluUykrjsXQZkPM-GQT4-131" value="" style="rounded=0;whiteSpace=wrap;html=1;fillColor=#d5e8d4;strokeColor=#82b366;" vertex="1" parent="1">
          <mxGeometry x="865" y="479" width="40" height="40" as="geometry" />
        </mxCell>
        <mxCell id="VluUykrjsXQZkPM-GQT4-132" value="" style="rounded=0;whiteSpace=wrap;html=1;fillColor=#d5e8d4;strokeColor=#82b366;" vertex="1" parent="1">
          <mxGeometry x="905" y="479" width="40" height="40" as="geometry" />
        </mxCell>
        <mxCell id="VluUykrjsXQZkPM-GQT4-133" value="" style="rounded=0;whiteSpace=wrap;html=1;fillColor=#d5e8d4;strokeColor=#82b366;" vertex="1" parent="1">
          <mxGeometry x="745" y="519" width="40" height="40" as="geometry" />
        </mxCell>
        <mxCell id="VluUykrjsXQZkPM-GQT4-134" value="" style="rounded=0;whiteSpace=wrap;html=1;fillColor=#d5e8d4;strokeColor=#82b366;" vertex="1" parent="1">
          <mxGeometry x="785" y="519" width="40" height="40" as="geometry" />
        </mxCell>
        <mxCell id="VluUykrjsXQZkPM-GQT4-135" value="" style="rounded=0;whiteSpace=wrap;html=1;fillColor=#d5e8d4;strokeColor=#82b366;" vertex="1" parent="1">
          <mxGeometry x="825" y="519" width="40" height="40" as="geometry" />
        </mxCell>
        <mxCell id="VluUykrjsXQZkPM-GQT4-136" value="" style="rounded=0;whiteSpace=wrap;html=1;fillColor=#d5e8d4;strokeColor=#82b366;" vertex="1" parent="1">
          <mxGeometry x="865" y="519" width="40" height="40" as="geometry" />
        </mxCell>
        <mxCell id="VluUykrjsXQZkPM-GQT4-137" value="" style="rounded=0;whiteSpace=wrap;html=1;fillColor=#d5e8d4;strokeColor=#82b366;" vertex="1" parent="1">
          <mxGeometry x="905" y="519" width="40" height="40" as="geometry" />
        </mxCell>
        <mxCell id="VluUykrjsXQZkPM-GQT4-138" value="" style="rounded=0;whiteSpace=wrap;html=1;fillColor=#d5e8d4;strokeColor=#82b366;" vertex="1" parent="1">
          <mxGeometry x="745" y="559" width="40" height="40" as="geometry" />
        </mxCell>
        <mxCell id="VluUykrjsXQZkPM-GQT4-139" value="" style="rounded=0;whiteSpace=wrap;html=1;fillColor=#d5e8d4;strokeColor=#82b366;" vertex="1" parent="1">
          <mxGeometry x="785" y="559" width="40" height="40" as="geometry" />
        </mxCell>
        <mxCell id="VluUykrjsXQZkPM-GQT4-140" value="" style="rounded=0;whiteSpace=wrap;html=1;fillColor=#d5e8d4;strokeColor=#82b366;" vertex="1" parent="1">
          <mxGeometry x="825" y="559" width="40" height="40" as="geometry" />
        </mxCell>
        <mxCell id="VluUykrjsXQZkPM-GQT4-141" value="" style="rounded=0;whiteSpace=wrap;html=1;fillColor=#d5e8d4;strokeColor=#82b366;" vertex="1" parent="1">
          <mxGeometry x="865" y="559" width="40" height="40" as="geometry" />
        </mxCell>
        <mxCell id="VluUykrjsXQZkPM-GQT4-142" value="" style="rounded=0;whiteSpace=wrap;html=1;fillColor=#d5e8d4;strokeColor=#82b366;" vertex="1" parent="1">
          <mxGeometry x="905" y="559" width="40" height="40" as="geometry" />
        </mxCell>
        <mxCell id="VluUykrjsXQZkPM-GQT4-143" value="" style="rounded=0;whiteSpace=wrap;html=1;fillColor=#ffe6cc;strokeColor=#d79b00;" vertex="1" parent="1">
          <mxGeometry x="755" y="449" width="40" height="40" as="geometry" />
        </mxCell>
        <mxCell id="VluUykrjsXQZkPM-GQT4-144" value="" style="rounded=0;whiteSpace=wrap;html=1;fillColor=#ffe6cc;strokeColor=#d79b00;" vertex="1" parent="1">
          <mxGeometry x="795" y="449" width="40" height="40" as="geometry" />
        </mxCell>
        <mxCell id="VluUykrjsXQZkPM-GQT4-145" value="" style="rounded=0;whiteSpace=wrap;html=1;fillColor=#ffe6cc;strokeColor=#d79b00;" vertex="1" parent="1">
          <mxGeometry x="835" y="449" width="40" height="40" as="geometry" />
        </mxCell>
        <mxCell id="VluUykrjsXQZkPM-GQT4-146" value="" style="rounded=0;whiteSpace=wrap;html=1;fillColor=#ffe6cc;strokeColor=#d79b00;" vertex="1" parent="1">
          <mxGeometry x="875" y="449" width="40" height="40" as="geometry" />
        </mxCell>
        <mxCell id="VluUykrjsXQZkPM-GQT4-147" value="" style="rounded=0;whiteSpace=wrap;html=1;fillColor=#ffe6cc;strokeColor=#d79b00;" vertex="1" parent="1">
          <mxGeometry x="755" y="489" width="40" height="40" as="geometry" />
        </mxCell>
        <mxCell id="VluUykrjsXQZkPM-GQT4-148" value="" style="rounded=0;whiteSpace=wrap;html=1;fillColor=#ffe6cc;strokeColor=#d79b00;" vertex="1" parent="1">
          <mxGeometry x="795" y="489" width="40" height="40" as="geometry" />
        </mxCell>
        <mxCell id="VluUykrjsXQZkPM-GQT4-149" value="" style="rounded=0;whiteSpace=wrap;html=1;fillColor=#ffe6cc;strokeColor=#d79b00;" vertex="1" parent="1">
          <mxGeometry x="835" y="489" width="40" height="40" as="geometry" />
        </mxCell>
        <mxCell id="VluUykrjsXQZkPM-GQT4-150" value="" style="rounded=0;whiteSpace=wrap;html=1;fillColor=#ffe6cc;strokeColor=#d79b00;" vertex="1" parent="1">
          <mxGeometry x="875" y="489" width="40" height="40" as="geometry" />
        </mxCell>
        <mxCell id="VluUykrjsXQZkPM-GQT4-151" value="" style="rounded=0;whiteSpace=wrap;html=1;fillColor=#ffe6cc;strokeColor=#d79b00;" vertex="1" parent="1">
          <mxGeometry x="755" y="529" width="40" height="40" as="geometry" />
        </mxCell>
        <mxCell id="VluUykrjsXQZkPM-GQT4-152" value="" style="rounded=0;whiteSpace=wrap;html=1;fillColor=#ffe6cc;strokeColor=#d79b00;" vertex="1" parent="1">
          <mxGeometry x="795" y="529" width="40" height="40" as="geometry" />
        </mxCell>
        <mxCell id="VluUykrjsXQZkPM-GQT4-153" value="" style="rounded=0;whiteSpace=wrap;html=1;fillColor=#ffe6cc;strokeColor=#d79b00;" vertex="1" parent="1">
          <mxGeometry x="835" y="529" width="40" height="40" as="geometry" />
        </mxCell>
        <mxCell id="VluUykrjsXQZkPM-GQT4-154" value="" style="rounded=0;whiteSpace=wrap;html=1;fillColor=#ffe6cc;strokeColor=#d79b00;" vertex="1" parent="1">
          <mxGeometry x="875" y="529" width="40" height="40" as="geometry" />
        </mxCell>
        <mxCell id="VluUykrjsXQZkPM-GQT4-155" value="" style="rounded=0;whiteSpace=wrap;html=1;fillColor=#ffe6cc;strokeColor=#d79b00;" vertex="1" parent="1">
          <mxGeometry x="755" y="569" width="40" height="40" as="geometry" />
        </mxCell>
        <mxCell id="VluUykrjsXQZkPM-GQT4-156" value="" style="rounded=0;whiteSpace=wrap;html=1;fillColor=#ffe6cc;strokeColor=#d79b00;" vertex="1" parent="1">
          <mxGeometry x="795" y="569" width="40" height="40" as="geometry" />
        </mxCell>
        <mxCell id="VluUykrjsXQZkPM-GQT4-157" value="" style="rounded=0;whiteSpace=wrap;html=1;fillColor=#ffe6cc;strokeColor=#d79b00;" vertex="1" parent="1">
          <mxGeometry x="835" y="569" width="40" height="40" as="geometry" />
        </mxCell>
        <mxCell id="VluUykrjsXQZkPM-GQT4-158" value="" style="rounded=0;whiteSpace=wrap;html=1;fillColor=#ffe6cc;strokeColor=#d79b00;" vertex="1" parent="1">
          <mxGeometry x="875" y="569" width="40" height="40" as="geometry" />
        </mxCell>
        <mxCell id="VluUykrjsXQZkPM-GQT4-159" value="" style="rounded=0;whiteSpace=wrap;html=1;fillColor=#fff2cc;strokeColor=#d6b656;" vertex="1" parent="1">
          <mxGeometry x="765" y="459" width="40" height="40" as="geometry" />
        </mxCell>
        <mxCell id="VluUykrjsXQZkPM-GQT4-160" value="" style="rounded=0;whiteSpace=wrap;html=1;fillColor=#fff2cc;strokeColor=#d6b656;" vertex="1" parent="1">
          <mxGeometry x="805" y="459" width="40" height="40" as="geometry" />
        </mxCell>
        <mxCell id="VluUykrjsXQZkPM-GQT4-161" value="" style="rounded=0;whiteSpace=wrap;html=1;fillColor=#fff2cc;strokeColor=#d6b656;" vertex="1" parent="1">
          <mxGeometry x="845" y="459" width="40" height="40" as="geometry" />
        </mxCell>
        <mxCell id="VluUykrjsXQZkPM-GQT4-162" value="" style="rounded=0;whiteSpace=wrap;html=1;fillColor=#fff2cc;strokeColor=#d6b656;" vertex="1" parent="1">
          <mxGeometry x="885" y="459" width="40" height="40" as="geometry" />
        </mxCell>
        <mxCell id="VluUykrjsXQZkPM-GQT4-163" value="" style="rounded=0;whiteSpace=wrap;html=1;fillColor=#fff2cc;strokeColor=#d6b656;" vertex="1" parent="1">
          <mxGeometry x="765" y="499" width="40" height="40" as="geometry" />
        </mxCell>
        <mxCell id="VluUykrjsXQZkPM-GQT4-164" value="" style="rounded=0;whiteSpace=wrap;html=1;fillColor=#fff2cc;strokeColor=#d6b656;" vertex="1" parent="1">
          <mxGeometry x="805" y="499" width="40" height="40" as="geometry" />
        </mxCell>
        <mxCell id="VluUykrjsXQZkPM-GQT4-165" value="" style="rounded=0;whiteSpace=wrap;html=1;fillColor=#fff2cc;strokeColor=#d6b656;" vertex="1" parent="1">
          <mxGeometry x="845" y="499" width="40" height="40" as="geometry" />
        </mxCell>
        <mxCell id="VluUykrjsXQZkPM-GQT4-166" value="" style="rounded=0;whiteSpace=wrap;html=1;fillColor=#fff2cc;strokeColor=#d6b656;" vertex="1" parent="1">
          <mxGeometry x="885" y="499" width="40" height="40" as="geometry" />
        </mxCell>
        <mxCell id="VluUykrjsXQZkPM-GQT4-167" value="" style="rounded=0;whiteSpace=wrap;html=1;fillColor=#fff2cc;strokeColor=#d6b656;" vertex="1" parent="1">
          <mxGeometry x="765" y="539" width="40" height="40" as="geometry" />
        </mxCell>
        <mxCell id="VluUykrjsXQZkPM-GQT4-168" value="" style="rounded=0;whiteSpace=wrap;html=1;fillColor=#fff2cc;strokeColor=#d6b656;" vertex="1" parent="1">
          <mxGeometry x="805" y="539" width="40" height="40" as="geometry" />
        </mxCell>
        <mxCell id="VluUykrjsXQZkPM-GQT4-169" value="" style="rounded=0;whiteSpace=wrap;html=1;fillColor=#fff2cc;strokeColor=#d6b656;" vertex="1" parent="1">
          <mxGeometry x="845" y="539" width="40" height="40" as="geometry" />
        </mxCell>
        <mxCell id="VluUykrjsXQZkPM-GQT4-170" value="" style="rounded=0;whiteSpace=wrap;html=1;fillColor=#fff2cc;strokeColor=#d6b656;" vertex="1" parent="1">
          <mxGeometry x="885" y="539" width="40" height="40" as="geometry" />
        </mxCell>
        <mxCell id="VluUykrjsXQZkPM-GQT4-171" value="" style="rounded=0;whiteSpace=wrap;html=1;fillColor=#fff2cc;strokeColor=#d6b656;" vertex="1" parent="1">
          <mxGeometry x="765" y="579" width="40" height="40" as="geometry" />
        </mxCell>
        <mxCell id="VluUykrjsXQZkPM-GQT4-172" value="" style="rounded=0;whiteSpace=wrap;html=1;fillColor=#fff2cc;strokeColor=#d6b656;" vertex="1" parent="1">
          <mxGeometry x="805" y="579" width="40" height="40" as="geometry" />
        </mxCell>
        <mxCell id="VluUykrjsXQZkPM-GQT4-173" value="" style="rounded=0;whiteSpace=wrap;html=1;fillColor=#fff2cc;strokeColor=#d6b656;" vertex="1" parent="1">
          <mxGeometry x="845" y="579" width="40" height="40" as="geometry" />
        </mxCell>
        <mxCell id="VluUykrjsXQZkPM-GQT4-174" value="" style="rounded=0;whiteSpace=wrap;html=1;fillColor=#fff2cc;strokeColor=#d6b656;" vertex="1" parent="1">
          <mxGeometry x="885" y="579" width="40" height="40" as="geometry" />
        </mxCell>
        <mxCell id="VluUykrjsXQZkPM-GQT4-175" value="" style="rounded=0;whiteSpace=wrap;html=1;fillColor=#f8cecc;strokeColor=#b85450;" vertex="1" parent="1">
          <mxGeometry x="775" y="469" width="40" height="40" as="geometry" />
        </mxCell>
        <mxCell id="VluUykrjsXQZkPM-GQT4-176" value="" style="rounded=0;whiteSpace=wrap;html=1;fillColor=#f8cecc;strokeColor=#b85450;" vertex="1" parent="1">
          <mxGeometry x="815" y="469" width="40" height="40" as="geometry" />
        </mxCell>
        <mxCell id="VluUykrjsXQZkPM-GQT4-177" value="" style="rounded=0;whiteSpace=wrap;html=1;fillColor=#f8cecc;strokeColor=#b85450;" vertex="1" parent="1">
          <mxGeometry x="855" y="469" width="40" height="40" as="geometry" />
        </mxCell>
        <mxCell id="VluUykrjsXQZkPM-GQT4-178" value="" style="rounded=0;whiteSpace=wrap;html=1;fillColor=#f8cecc;strokeColor=#b85450;" vertex="1" parent="1">
          <mxGeometry x="895" y="469" width="40" height="40" as="geometry" />
        </mxCell>
        <mxCell id="VluUykrjsXQZkPM-GQT4-179" value="" style="rounded=0;whiteSpace=wrap;html=1;fillColor=#f8cecc;strokeColor=#b85450;" vertex="1" parent="1">
          <mxGeometry x="775" y="509" width="40" height="40" as="geometry" />
        </mxCell>
        <mxCell id="VluUykrjsXQZkPM-GQT4-180" value="" style="rounded=0;whiteSpace=wrap;html=1;fillColor=#f8cecc;strokeColor=#b85450;" vertex="1" parent="1">
          <mxGeometry x="815" y="509" width="40" height="40" as="geometry" />
        </mxCell>
        <mxCell id="VluUykrjsXQZkPM-GQT4-181" value="" style="rounded=0;whiteSpace=wrap;html=1;fillColor=#f8cecc;strokeColor=#b85450;" vertex="1" parent="1">
          <mxGeometry x="855" y="509" width="40" height="40" as="geometry" />
        </mxCell>
        <mxCell id="VluUykrjsXQZkPM-GQT4-182" value="" style="rounded=0;whiteSpace=wrap;html=1;fillColor=#f8cecc;strokeColor=#b85450;" vertex="1" parent="1">
          <mxGeometry x="895" y="509" width="40" height="40" as="geometry" />
        </mxCell>
        <mxCell id="VluUykrjsXQZkPM-GQT4-183" value="" style="rounded=0;whiteSpace=wrap;html=1;fillColor=#f8cecc;strokeColor=#b85450;" vertex="1" parent="1">
          <mxGeometry x="775" y="549" width="40" height="40" as="geometry" />
        </mxCell>
        <mxCell id="VluUykrjsXQZkPM-GQT4-184" value="" style="rounded=0;whiteSpace=wrap;html=1;fillColor=#f8cecc;strokeColor=#b85450;" vertex="1" parent="1">
          <mxGeometry x="815" y="549" width="40" height="40" as="geometry" />
        </mxCell>
        <mxCell id="VluUykrjsXQZkPM-GQT4-185" value="" style="rounded=0;whiteSpace=wrap;html=1;fillColor=#f8cecc;strokeColor=#b85450;" vertex="1" parent="1">
          <mxGeometry x="855" y="549" width="40" height="40" as="geometry" />
        </mxCell>
        <mxCell id="VluUykrjsXQZkPM-GQT4-186" value="" style="rounded=0;whiteSpace=wrap;html=1;fillColor=#f8cecc;strokeColor=#b85450;" vertex="1" parent="1">
          <mxGeometry x="895" y="549" width="40" height="40" as="geometry" />
        </mxCell>
        <mxCell id="VluUykrjsXQZkPM-GQT4-187" value="" style="rounded=0;whiteSpace=wrap;html=1;fillColor=#f8cecc;strokeColor=#b85450;" vertex="1" parent="1">
          <mxGeometry x="775" y="589" width="40" height="40" as="geometry" />
        </mxCell>
        <mxCell id="VluUykrjsXQZkPM-GQT4-188" value="" style="rounded=0;whiteSpace=wrap;html=1;fillColor=#f8cecc;strokeColor=#b85450;" vertex="1" parent="1">
          <mxGeometry x="815" y="589" width="40" height="40" as="geometry" />
        </mxCell>
        <mxCell id="VluUykrjsXQZkPM-GQT4-189" value="" style="rounded=0;whiteSpace=wrap;html=1;fillColor=#f8cecc;strokeColor=#b85450;" vertex="1" parent="1">
          <mxGeometry x="855" y="589" width="40" height="40" as="geometry" />
        </mxCell>
        <mxCell id="VluUykrjsXQZkPM-GQT4-190" value="" style="rounded=0;whiteSpace=wrap;html=1;fillColor=#f8cecc;strokeColor=#b85450;" vertex="1" parent="1">
          <mxGeometry x="895" y="589" width="40" height="40" as="geometry" />
        </mxCell>
        <mxCell id="VluUykrjsXQZkPM-GQT4-191" value="" style="rounded=0;whiteSpace=wrap;html=1;fillColor=#e1d5e7;strokeColor=#9673a6;" vertex="1" parent="1">
          <mxGeometry x="785" y="479" width="40" height="40" as="geometry" />
        </mxCell>
        <mxCell id="VluUykrjsXQZkPM-GQT4-192" value="" style="rounded=0;whiteSpace=wrap;html=1;fillColor=#e1d5e7;strokeColor=#9673a6;" vertex="1" parent="1">
          <mxGeometry x="825" y="479" width="40" height="40" as="geometry" />
        </mxCell>
        <mxCell id="VluUykrjsXQZkPM-GQT4-193" value="" style="rounded=0;whiteSpace=wrap;html=1;fillColor=#e1d5e7;strokeColor=#9673a6;" vertex="1" parent="1">
          <mxGeometry x="865" y="479" width="40" height="40" as="geometry" />
        </mxCell>
        <mxCell id="VluUykrjsXQZkPM-GQT4-194" value="" style="rounded=0;whiteSpace=wrap;html=1;fillColor=#e1d5e7;strokeColor=#9673a6;" vertex="1" parent="1">
          <mxGeometry x="905" y="479" width="40" height="40" as="geometry" />
        </mxCell>
        <mxCell id="VluUykrjsXQZkPM-GQT4-195" value="" style="rounded=0;whiteSpace=wrap;html=1;fillColor=#e1d5e7;strokeColor=#9673a6;" vertex="1" parent="1">
          <mxGeometry x="785" y="519" width="40" height="40" as="geometry" />
        </mxCell>
        <mxCell id="VluUykrjsXQZkPM-GQT4-196" value="" style="rounded=0;whiteSpace=wrap;html=1;fillColor=#e1d5e7;strokeColor=#9673a6;" vertex="1" parent="1">
          <mxGeometry x="825" y="519" width="40" height="40" as="geometry" />
        </mxCell>
        <mxCell id="VluUykrjsXQZkPM-GQT4-197" value="" style="rounded=0;whiteSpace=wrap;html=1;fillColor=#e1d5e7;strokeColor=#9673a6;" vertex="1" parent="1">
          <mxGeometry x="865" y="519" width="40" height="40" as="geometry" />
        </mxCell>
        <mxCell id="VluUykrjsXQZkPM-GQT4-198" value="" style="rounded=0;whiteSpace=wrap;html=1;fillColor=#e1d5e7;strokeColor=#9673a6;" vertex="1" parent="1">
          <mxGeometry x="905" y="519" width="40" height="40" as="geometry" />
        </mxCell>
        <mxCell id="VluUykrjsXQZkPM-GQT4-199" value="" style="rounded=0;whiteSpace=wrap;html=1;fillColor=#e1d5e7;strokeColor=#9673a6;" vertex="1" parent="1">
          <mxGeometry x="785" y="559" width="40" height="40" as="geometry" />
        </mxCell>
        <mxCell id="VluUykrjsXQZkPM-GQT4-200" value="" style="rounded=0;whiteSpace=wrap;html=1;fillColor=#e1d5e7;strokeColor=#9673a6;" vertex="1" parent="1">
          <mxGeometry x="825" y="559" width="40" height="40" as="geometry" />
        </mxCell>
        <mxCell id="VluUykrjsXQZkPM-GQT4-201" value="" style="rounded=0;whiteSpace=wrap;html=1;fillColor=#e1d5e7;strokeColor=#9673a6;" vertex="1" parent="1">
          <mxGeometry x="865" y="559" width="40" height="40" as="geometry" />
        </mxCell>
        <mxCell id="VluUykrjsXQZkPM-GQT4-202" style="edgeStyle=orthogonalEdgeStyle;curved=1;rounded=0;orthogonalLoop=1;jettySize=auto;html=1;entryX=0;entryY=0.5;entryDx=0;entryDy=0;exitX=1;exitY=0;exitDx=0;exitDy=0;" edge="1" parent="1" source="VluUykrjsXQZkPM-GQT4-203" target="VluUykrjsXQZkPM-GQT4-218">
          <mxGeometry relative="1" as="geometry">
            <Array as="points">
              <mxPoint x="1015" y="559.5" />
              <mxPoint x="1015" y="406.5" />
            </Array>
          </mxGeometry>
        </mxCell>
        <mxCell id="VluUykrjsXQZkPM-GQT4-203" value="" style="rounded=0;whiteSpace=wrap;html=1;fillColor=#e1d5e7;strokeColor=#9673a6;" vertex="1" parent="1">
          <mxGeometry x="905" y="559" width="40" height="40" as="geometry" />
        </mxCell>
        <mxCell id="VluUykrjsXQZkPM-GQT4-204" value="" style="rounded=0;whiteSpace=wrap;html=1;fillColor=#e1d5e7;strokeColor=#9673a6;" vertex="1" parent="1">
          <mxGeometry x="785" y="599" width="40" height="40" as="geometry" />
        </mxCell>
        <mxCell id="VluUykrjsXQZkPM-GQT4-205" value="" style="rounded=0;whiteSpace=wrap;html=1;fillColor=#e1d5e7;strokeColor=#9673a6;" vertex="1" parent="1">
          <mxGeometry x="825" y="599" width="40" height="40" as="geometry" />
        </mxCell>
        <mxCell id="VluUykrjsXQZkPM-GQT4-206" value="" style="rounded=0;whiteSpace=wrap;html=1;fillColor=#e1d5e7;strokeColor=#9673a6;" vertex="1" parent="1">
          <mxGeometry x="865" y="599" width="40" height="40" as="geometry" />
        </mxCell>
        <mxCell id="VluUykrjsXQZkPM-GQT4-207" value="" style="rounded=0;whiteSpace=wrap;html=1;fillColor=#e1d5e7;strokeColor=#9673a6;" vertex="1" parent="1">
          <mxGeometry x="905" y="599" width="40" height="40" as="geometry" />
        </mxCell>
        <mxCell id="VluUykrjsXQZkPM-GQT4-208" value="&lt;div&gt;CNN layers&lt;/div&gt;" style="text;html=1;strokeColor=none;fillColor=none;align=center;verticalAlign=middle;whiteSpace=wrap;rounded=0;" vertex="1" parent="1">
          <mxGeometry x="720" y="670" width="250" height="20" as="geometry" />
        </mxCell>
        <mxCell id="VluUykrjsXQZkPM-GQT4-209" style="rounded=1;jumpSize=20;orthogonalLoop=1;jettySize=auto;html=1;entryX=0;entryY=0.5;entryDx=0;entryDy=0;strokeWidth=1;" edge="1" parent="1" source="VluUykrjsXQZkPM-GQT4-210" target="VluUykrjsXQZkPM-GQT4-235">
          <mxGeometry relative="1" as="geometry" />
        </mxCell>
        <mxCell id="VluUykrjsXQZkPM-GQT4-210" value="" style="ellipse;whiteSpace=wrap;html=1;aspect=fixed;" vertex="1" parent="1">
          <mxGeometry x="1105" y="271" width="30" height="30" as="geometry" />
        </mxCell>
        <mxCell id="VluUykrjsXQZkPM-GQT4-211" style="edgeStyle=none;rounded=0;orthogonalLoop=1;jettySize=auto;html=1;entryX=0;entryY=0.5;entryDx=0;entryDy=0;" edge="1" parent="1" source="VluUykrjsXQZkPM-GQT4-212" target="VluUykrjsXQZkPM-GQT4-230">
          <mxGeometry relative="1" as="geometry" />
        </mxCell>
        <mxCell id="VluUykrjsXQZkPM-GQT4-212" value="" style="ellipse;whiteSpace=wrap;html=1;aspect=fixed;" vertex="1" parent="1">
          <mxGeometry x="1105" y="311" width="30" height="30" as="geometry" />
        </mxCell>
        <mxCell id="VluUykrjsXQZkPM-GQT4-213" style="rounded=1;jumpSize=20;orthogonalLoop=1;jettySize=auto;html=1;entryX=0;entryY=0.5;entryDx=0;entryDy=0;strokeWidth=1;" edge="1" parent="1" source="VluUykrjsXQZkPM-GQT4-216" target="VluUykrjsXQZkPM-GQT4-228">
          <mxGeometry relative="1" as="geometry" />
        </mxCell>
        <mxCell id="VluUykrjsXQZkPM-GQT4-214" style="edgeStyle=none;rounded=1;jumpSize=20;orthogonalLoop=1;jettySize=auto;html=1;entryX=0;entryY=0.5;entryDx=0;entryDy=0;strokeWidth=1;" edge="1" parent="1" source="VluUykrjsXQZkPM-GQT4-216" target="VluUykrjsXQZkPM-GQT4-241">
          <mxGeometry relative="1" as="geometry" />
        </mxCell>
        <mxCell id="VluUykrjsXQZkPM-GQT4-215" style="edgeStyle=none;rounded=1;jumpSize=20;orthogonalLoop=1;jettySize=auto;html=1;entryX=0;entryY=0.5;entryDx=0;entryDy=0;strokeWidth=1;" edge="1" parent="1" source="VluUykrjsXQZkPM-GQT4-216" target="VluUykrjsXQZkPM-GQT4-238">
          <mxGeometry relative="1" as="geometry" />
        </mxCell>
        <mxCell id="VluUykrjsXQZkPM-GQT4-216" value="" style="ellipse;whiteSpace=wrap;html=1;aspect=fixed;" vertex="1" parent="1">
          <mxGeometry x="1105" y="351" width="30" height="30" as="geometry" />
        </mxCell>
        <mxCell id="VluUykrjsXQZkPM-GQT4-217" style="rounded=1;jumpSize=20;orthogonalLoop=1;jettySize=auto;html=1;entryX=0;entryY=0.5;entryDx=0;entryDy=0;strokeWidth=1;" edge="1" parent="1" source="VluUykrjsXQZkPM-GQT4-218" target="VluUykrjsXQZkPM-GQT4-231">
          <mxGeometry relative="1" as="geometry" />
        </mxCell>
        <mxCell id="VluUykrjsXQZkPM-GQT4-218" value="" style="ellipse;whiteSpace=wrap;html=1;aspect=fixed;" vertex="1" parent="1">
          <mxGeometry x="1105" y="391" width="30" height="30" as="geometry" />
        </mxCell>
        <mxCell id="VluUykrjsXQZkPM-GQT4-219" style="rounded=1;jumpSize=20;orthogonalLoop=1;jettySize=auto;html=1;entryX=0;entryY=0.5;entryDx=0;entryDy=0;strokeWidth=1;" edge="1" parent="1" source="VluUykrjsXQZkPM-GQT4-222" target="VluUykrjsXQZkPM-GQT4-230">
          <mxGeometry relative="1" as="geometry" />
        </mxCell>
        <mxCell id="VluUykrjsXQZkPM-GQT4-220" style="edgeStyle=none;rounded=1;jumpSize=20;orthogonalLoop=1;jettySize=auto;html=1;entryX=0;entryY=0.5;entryDx=0;entryDy=0;strokeWidth=1;" edge="1" parent="1" source="VluUykrjsXQZkPM-GQT4-222" target="VluUykrjsXQZkPM-GQT4-243">
          <mxGeometry relative="1" as="geometry" />
        </mxCell>
        <mxCell id="VluUykrjsXQZkPM-GQT4-221" style="edgeStyle=none;rounded=1;jumpSize=20;orthogonalLoop=1;jettySize=auto;html=1;entryX=0;entryY=0.5;entryDx=0;entryDy=0;strokeWidth=1;" edge="1" parent="1" source="VluUykrjsXQZkPM-GQT4-222" target="VluUykrjsXQZkPM-GQT4-241">
          <mxGeometry relative="1" as="geometry" />
        </mxCell>
        <mxCell id="VluUykrjsXQZkPM-GQT4-222" value="" style="ellipse;whiteSpace=wrap;html=1;aspect=fixed;" vertex="1" parent="1">
          <mxGeometry x="1105" y="431" width="30" height="30" as="geometry" />
        </mxCell>
        <mxCell id="VluUykrjsXQZkPM-GQT4-223" style="edgeStyle=none;rounded=1;jumpSize=20;orthogonalLoop=1;jettySize=auto;html=1;entryX=0;entryY=0.5;entryDx=0;entryDy=0;strokeWidth=1;" edge="1" parent="1" source="VluUykrjsXQZkPM-GQT4-224" target="VluUykrjsXQZkPM-GQT4-230">
          <mxGeometry relative="1" as="geometry" />
        </mxCell>
        <mxCell id="VluUykrjsXQZkPM-GQT4-224" value="" style="ellipse;whiteSpace=wrap;html=1;aspect=fixed;" vertex="1" parent="1">
          <mxGeometry x="1105" y="471" width="30" height="30" as="geometry" />
        </mxCell>
        <mxCell id="VluUykrjsXQZkPM-GQT4-225" style="edgeStyle=none;rounded=1;jumpSize=20;orthogonalLoop=1;jettySize=auto;html=1;entryX=0;entryY=0.5;entryDx=0;entryDy=0;strokeWidth=1;" edge="1" parent="1" source="VluUykrjsXQZkPM-GQT4-226" target="VluUykrjsXQZkPM-GQT4-241">
          <mxGeometry relative="1" as="geometry" />
        </mxCell>
        <mxCell id="VluUykrjsXQZkPM-GQT4-226" value="" style="ellipse;whiteSpace=wrap;html=1;aspect=fixed;" vertex="1" parent="1">
          <mxGeometry x="1105" y="511" width="30" height="30" as="geometry" />
        </mxCell>
        <mxCell id="VluUykrjsXQZkPM-GQT4-227" style="edgeStyle=none;rounded=1;jumpSize=20;orthogonalLoop=1;jettySize=auto;html=1;entryX=0;entryY=0.5;entryDx=0;entryDy=0;strokeWidth=1;" edge="1" parent="1" source="VluUykrjsXQZkPM-GQT4-228" target="VluUykrjsXQZkPM-GQT4-254">
          <mxGeometry relative="1" as="geometry" />
        </mxCell>
        <mxCell id="VluUykrjsXQZkPM-GQT4-228" value="" style="ellipse;whiteSpace=wrap;html=1;aspect=fixed;" vertex="1" parent="1">
          <mxGeometry x="1185" y="271" width="30" height="30" as="geometry" />
        </mxCell>
        <mxCell id="VluUykrjsXQZkPM-GQT4-229" style="edgeStyle=none;rounded=1;jumpSize=20;orthogonalLoop=1;jettySize=auto;html=1;entryX=0;entryY=0.5;entryDx=0;entryDy=0;strokeWidth=1;" edge="1" parent="1" source="VluUykrjsXQZkPM-GQT4-230" target="VluUykrjsXQZkPM-GQT4-259">
          <mxGeometry relative="1" as="geometry" />
        </mxCell>
        <mxCell id="VluUykrjsXQZkPM-GQT4-230" value="" style="ellipse;whiteSpace=wrap;html=1;aspect=fixed;" vertex="1" parent="1">
          <mxGeometry x="1185" y="311" width="30" height="30" as="geometry" />
        </mxCell>
        <mxCell id="VluUykrjsXQZkPM-GQT4-231" value="" style="ellipse;whiteSpace=wrap;html=1;aspect=fixed;" vertex="1" parent="1">
          <mxGeometry x="1185" y="351" width="30" height="30" as="geometry" />
        </mxCell>
        <mxCell id="VluUykrjsXQZkPM-GQT4-232" style="edgeStyle=none;rounded=1;jumpSize=20;orthogonalLoop=1;jettySize=auto;html=1;entryX=0;entryY=0.5;entryDx=0;entryDy=0;strokeWidth=1;" edge="1" parent="1" source="VluUykrjsXQZkPM-GQT4-235" target="VluUykrjsXQZkPM-GQT4-248">
          <mxGeometry relative="1" as="geometry" />
        </mxCell>
        <mxCell id="VluUykrjsXQZkPM-GQT4-233" style="edgeStyle=none;rounded=1;jumpSize=20;orthogonalLoop=1;jettySize=auto;html=1;entryX=0;entryY=0.5;entryDx=0;entryDy=0;strokeWidth=1;" edge="1" parent="1" source="VluUykrjsXQZkPM-GQT4-235" target="VluUykrjsXQZkPM-GQT4-256">
          <mxGeometry relative="1" as="geometry" />
        </mxCell>
        <mxCell id="VluUykrjsXQZkPM-GQT4-234" style="edgeStyle=none;rounded=1;jumpSize=20;orthogonalLoop=1;jettySize=auto;html=1;entryX=0;entryY=0.5;entryDx=0;entryDy=0;strokeWidth=1;" edge="1" parent="1" source="VluUykrjsXQZkPM-GQT4-235" target="VluUykrjsXQZkPM-GQT4-250">
          <mxGeometry relative="1" as="geometry" />
        </mxCell>
        <mxCell id="VluUykrjsXQZkPM-GQT4-235" value="" style="ellipse;whiteSpace=wrap;html=1;aspect=fixed;" vertex="1" parent="1">
          <mxGeometry x="1185" y="391" width="30" height="30" as="geometry" />
        </mxCell>
        <mxCell id="VluUykrjsXQZkPM-GQT4-236" style="edgeStyle=none;rounded=1;jumpSize=20;orthogonalLoop=1;jettySize=auto;html=1;entryX=0;entryY=0.5;entryDx=0;entryDy=0;strokeWidth=1;" edge="1" parent="1" source="VluUykrjsXQZkPM-GQT4-238" target="VluUykrjsXQZkPM-GQT4-250">
          <mxGeometry relative="1" as="geometry" />
        </mxCell>
        <mxCell id="VluUykrjsXQZkPM-GQT4-237" style="edgeStyle=none;rounded=1;jumpSize=20;orthogonalLoop=1;jettySize=auto;html=1;entryX=0;entryY=0.5;entryDx=0;entryDy=0;strokeWidth=1;" edge="1" parent="1" source="VluUykrjsXQZkPM-GQT4-238" target="VluUykrjsXQZkPM-GQT4-259">
          <mxGeometry relative="1" as="geometry" />
        </mxCell>
        <mxCell id="VluUykrjsXQZkPM-GQT4-238" value="" style="ellipse;whiteSpace=wrap;html=1;aspect=fixed;" vertex="1" parent="1">
          <mxGeometry x="1185" y="431" width="30" height="30" as="geometry" />
        </mxCell>
        <mxCell id="VluUykrjsXQZkPM-GQT4-239" style="edgeStyle=none;rounded=1;jumpSize=20;orthogonalLoop=1;jettySize=auto;html=1;entryX=0;entryY=0.5;entryDx=0;entryDy=0;strokeWidth=1;" edge="1" parent="1" source="VluUykrjsXQZkPM-GQT4-241" target="VluUykrjsXQZkPM-GQT4-252">
          <mxGeometry relative="1" as="geometry" />
        </mxCell>
        <mxCell id="VluUykrjsXQZkPM-GQT4-240" style="edgeStyle=none;rounded=1;jumpSize=20;orthogonalLoop=1;jettySize=auto;html=1;entryX=0;entryY=0.5;entryDx=0;entryDy=0;strokeWidth=1;" edge="1" parent="1" source="VluUykrjsXQZkPM-GQT4-241" target="VluUykrjsXQZkPM-GQT4-261">
          <mxGeometry relative="1" as="geometry" />
        </mxCell>
        <mxCell id="VluUykrjsXQZkPM-GQT4-241" value="" style="ellipse;whiteSpace=wrap;html=1;aspect=fixed;" vertex="1" parent="1">
          <mxGeometry x="1185" y="471" width="30" height="30" as="geometry" />
        </mxCell>
        <mxCell id="VluUykrjsXQZkPM-GQT4-242" style="edgeStyle=none;rounded=1;jumpSize=20;orthogonalLoop=1;jettySize=auto;html=1;entryX=0;entryY=0.5;entryDx=0;entryDy=0;strokeWidth=1;" edge="1" parent="1" source="VluUykrjsXQZkPM-GQT4-243" target="VluUykrjsXQZkPM-GQT4-256">
          <mxGeometry relative="1" as="geometry" />
        </mxCell>
        <mxCell id="VluUykrjsXQZkPM-GQT4-243" value="" style="ellipse;whiteSpace=wrap;html=1;aspect=fixed;" vertex="1" parent="1">
          <mxGeometry x="1185" y="511" width="30" height="30" as="geometry" />
        </mxCell>
        <mxCell id="VluUykrjsXQZkPM-GQT4-244" value="Dense layers" style="text;html=1;strokeColor=none;fillColor=none;align=center;verticalAlign=middle;whiteSpace=wrap;rounded=0;" vertex="1" parent="1">
          <mxGeometry x="1155" y="556" width="250" height="20" as="geometry" />
        </mxCell>
        <mxCell id="VluUykrjsXQZkPM-GQT4-245" value="Flatten" style="text;html=1;strokeColor=none;fillColor=none;align=center;verticalAlign=middle;whiteSpace=wrap;rounded=0;" vertex="1" parent="1">
          <mxGeometry x="995" y="556" width="250" height="20" as="geometry" />
        </mxCell>
        <mxCell id="VluUykrjsXQZkPM-GQT4-246" style="edgeStyle=none;rounded=1;jumpSize=20;orthogonalLoop=1;jettySize=auto;html=1;entryX=0;entryY=0.5;entryDx=0;entryDy=0;strokeWidth=1;" edge="1" parent="1" source="VluUykrjsXQZkPM-GQT4-248" target="VluUykrjsXQZkPM-GQT4-273">
          <mxGeometry relative="1" as="geometry" />
        </mxCell>
        <mxCell id="VluUykrjsXQZkPM-GQT4-247" style="edgeStyle=none;rounded=1;jumpSize=20;orthogonalLoop=1;jettySize=auto;html=1;strokeWidth=1;" edge="1" parent="1" source="VluUykrjsXQZkPM-GQT4-248">
          <mxGeometry relative="1" as="geometry">
            <mxPoint x="1345" y="446" as="targetPoint" />
          </mxGeometry>
        </mxCell>
        <mxCell id="VluUykrjsXQZkPM-GQT4-248" value="" style="ellipse;whiteSpace=wrap;html=1;aspect=fixed;" vertex="1" parent="1">
          <mxGeometry x="1265" y="271" width="30" height="30" as="geometry" />
        </mxCell>
        <mxCell id="VluUykrjsXQZkPM-GQT4-249" style="edgeStyle=none;rounded=1;jumpSize=20;orthogonalLoop=1;jettySize=auto;html=1;entryX=0;entryY=0.5;entryDx=0;entryDy=0;strokeWidth=1;" edge="1" parent="1" source="VluUykrjsXQZkPM-GQT4-250" target="VluUykrjsXQZkPM-GQT4-279">
          <mxGeometry relative="1" as="geometry" />
        </mxCell>
        <mxCell id="VluUykrjsXQZkPM-GQT4-250" value="" style="ellipse;whiteSpace=wrap;html=1;aspect=fixed;" vertex="1" parent="1">
          <mxGeometry x="1265" y="311" width="30" height="30" as="geometry" />
        </mxCell>
        <mxCell id="VluUykrjsXQZkPM-GQT4-251" style="edgeStyle=none;rounded=1;jumpSize=20;orthogonalLoop=1;jettySize=auto;html=1;entryX=0;entryY=0.5;entryDx=0;entryDy=0;strokeWidth=1;" edge="1" parent="1" source="VluUykrjsXQZkPM-GQT4-252" target="VluUykrjsXQZkPM-GQT4-276">
          <mxGeometry relative="1" as="geometry" />
        </mxCell>
        <mxCell id="VluUykrjsXQZkPM-GQT4-252" value="" style="ellipse;whiteSpace=wrap;html=1;aspect=fixed;" vertex="1" parent="1">
          <mxGeometry x="1265" y="351" width="30" height="30" as="geometry" />
        </mxCell>
        <mxCell id="VluUykrjsXQZkPM-GQT4-253" style="edgeStyle=none;rounded=1;jumpSize=20;orthogonalLoop=1;jettySize=auto;html=1;entryX=0;entryY=0.5;entryDx=0;entryDy=0;strokeWidth=1;" edge="1" parent="1" source="VluUykrjsXQZkPM-GQT4-254" target="VluUykrjsXQZkPM-GQT4-267">
          <mxGeometry relative="1" as="geometry" />
        </mxCell>
        <mxCell id="VluUykrjsXQZkPM-GQT4-254" value="" style="ellipse;whiteSpace=wrap;html=1;aspect=fixed;" vertex="1" parent="1">
          <mxGeometry x="1265" y="391" width="30" height="30" as="geometry" />
        </mxCell>
        <mxCell id="VluUykrjsXQZkPM-GQT4-255" style="edgeStyle=none;rounded=1;jumpSize=20;orthogonalLoop=1;jettySize=auto;html=1;entryX=0;entryY=0.5;entryDx=0;entryDy=0;strokeWidth=1;" edge="1" parent="1" source="VluUykrjsXQZkPM-GQT4-256" target="VluUykrjsXQZkPM-GQT4-282">
          <mxGeometry relative="1" as="geometry" />
        </mxCell>
        <mxCell id="VluUykrjsXQZkPM-GQT4-256" value="" style="ellipse;whiteSpace=wrap;html=1;aspect=fixed;" vertex="1" parent="1">
          <mxGeometry x="1265" y="431" width="30" height="30" as="geometry" />
        </mxCell>
        <mxCell id="VluUykrjsXQZkPM-GQT4-257" style="edgeStyle=none;rounded=1;jumpSize=20;orthogonalLoop=1;jettySize=auto;html=1;entryX=0;entryY=0.5;entryDx=0;entryDy=0;strokeWidth=1;" edge="1" parent="1" source="VluUykrjsXQZkPM-GQT4-259" target="VluUykrjsXQZkPM-GQT4-270">
          <mxGeometry relative="1" as="geometry" />
        </mxCell>
        <mxCell id="VluUykrjsXQZkPM-GQT4-258" style="edgeStyle=none;rounded=1;jumpSize=20;orthogonalLoop=1;jettySize=auto;html=1;entryX=0;entryY=0.5;entryDx=0;entryDy=0;strokeWidth=1;" edge="1" parent="1" source="VluUykrjsXQZkPM-GQT4-259" target="VluUykrjsXQZkPM-GQT4-279">
          <mxGeometry relative="1" as="geometry" />
        </mxCell>
        <mxCell id="VluUykrjsXQZkPM-GQT4-259" value="" style="ellipse;whiteSpace=wrap;html=1;aspect=fixed;" vertex="1" parent="1">
          <mxGeometry x="1265" y="471" width="30" height="30" as="geometry" />
        </mxCell>
        <mxCell id="VluUykrjsXQZkPM-GQT4-260" style="edgeStyle=none;rounded=1;jumpSize=20;orthogonalLoop=1;jettySize=auto;html=1;entryX=0;entryY=0.5;entryDx=0;entryDy=0;strokeWidth=1;" edge="1" parent="1" source="VluUykrjsXQZkPM-GQT4-261" target="VluUykrjsXQZkPM-GQT4-264">
          <mxGeometry relative="1" as="geometry" />
        </mxCell>
        <mxCell id="VluUykrjsXQZkPM-GQT4-261" value="" style="ellipse;whiteSpace=wrap;html=1;aspect=fixed;" vertex="1" parent="1">
          <mxGeometry x="1265" y="511" width="30" height="30" as="geometry" />
        </mxCell>
        <mxCell id="VluUykrjsXQZkPM-GQT4-262" style="edgeStyle=none;rounded=1;jumpSize=20;orthogonalLoop=1;jettySize=auto;html=1;entryX=0;entryY=0.5;entryDx=0;entryDy=0;strokeWidth=1;" edge="1" parent="1" source="VluUykrjsXQZkPM-GQT4-264" target="VluUykrjsXQZkPM-GQT4-284">
          <mxGeometry relative="1" as="geometry" />
        </mxCell>
        <mxCell id="VluUykrjsXQZkPM-GQT4-263" style="edgeStyle=none;rounded=1;jumpSize=20;orthogonalLoop=1;jettySize=auto;html=1;entryX=0;entryY=0.5;entryDx=0;entryDy=0;strokeWidth=1;" edge="1" parent="1" source="VluUykrjsXQZkPM-GQT4-264" target="VluUykrjsXQZkPM-GQT4-285">
          <mxGeometry relative="1" as="geometry" />
        </mxCell>
        <mxCell id="VluUykrjsXQZkPM-GQT4-264" value="" style="ellipse;whiteSpace=wrap;html=1;aspect=fixed;" vertex="1" parent="1">
          <mxGeometry x="1345" y="271" width="30" height="30" as="geometry" />
        </mxCell>
        <mxCell id="VluUykrjsXQZkPM-GQT4-265" style="edgeStyle=none;rounded=1;jumpSize=20;orthogonalLoop=1;jettySize=auto;html=1;entryX=0;entryY=0.5;entryDx=0;entryDy=0;strokeWidth=1;" edge="1" parent="1" source="VluUykrjsXQZkPM-GQT4-267" target="VluUykrjsXQZkPM-GQT4-285">
          <mxGeometry relative="1" as="geometry" />
        </mxCell>
        <mxCell id="VluUykrjsXQZkPM-GQT4-266" style="edgeStyle=none;rounded=1;jumpSize=20;orthogonalLoop=1;jettySize=auto;html=1;strokeWidth=1;entryX=-0.001;entryY=0.557;entryDx=0;entryDy=0;entryPerimeter=0;" edge="1" parent="1" source="VluUykrjsXQZkPM-GQT4-267" target="VluUykrjsXQZkPM-GQT4-284">
          <mxGeometry relative="1" as="geometry">
            <mxPoint x="1445" y="406.0000000000001" as="targetPoint" />
          </mxGeometry>
        </mxCell>
        <mxCell id="VluUykrjsXQZkPM-GQT4-267" value="" style="ellipse;whiteSpace=wrap;html=1;aspect=fixed;" vertex="1" parent="1">
          <mxGeometry x="1345" y="311" width="30" height="30" as="geometry" />
        </mxCell>
        <mxCell id="VluUykrjsXQZkPM-GQT4-268" style="edgeStyle=none;rounded=1;jumpSize=20;orthogonalLoop=1;jettySize=auto;html=1;entryX=0;entryY=0.5;entryDx=0;entryDy=0;strokeWidth=1;" edge="1" parent="1" source="VluUykrjsXQZkPM-GQT4-270" target="VluUykrjsXQZkPM-GQT4-284">
          <mxGeometry relative="1" as="geometry" />
        </mxCell>
        <mxCell id="VluUykrjsXQZkPM-GQT4-269" style="edgeStyle=none;rounded=1;jumpSize=20;orthogonalLoop=1;jettySize=auto;html=1;strokeWidth=1;" edge="1" parent="1" source="VluUykrjsXQZkPM-GQT4-270">
          <mxGeometry relative="1" as="geometry">
            <mxPoint x="1455" y="446" as="targetPoint" />
          </mxGeometry>
        </mxCell>
        <mxCell id="VluUykrjsXQZkPM-GQT4-270" value="" style="ellipse;whiteSpace=wrap;html=1;aspect=fixed;" vertex="1" parent="1">
          <mxGeometry x="1345" y="351" width="30" height="30" as="geometry" />
        </mxCell>
        <mxCell id="VluUykrjsXQZkPM-GQT4-271" style="edgeStyle=none;rounded=1;jumpSize=20;orthogonalLoop=1;jettySize=auto;html=1;entryX=0;entryY=0.5;entryDx=0;entryDy=0;strokeWidth=1;" edge="1" parent="1" source="VluUykrjsXQZkPM-GQT4-273" target="VluUykrjsXQZkPM-GQT4-285">
          <mxGeometry relative="1" as="geometry" />
        </mxCell>
        <mxCell id="VluUykrjsXQZkPM-GQT4-272" style="edgeStyle=none;rounded=1;jumpSize=20;orthogonalLoop=1;jettySize=auto;html=1;strokeWidth=1;" edge="1" parent="1" source="VluUykrjsXQZkPM-GQT4-273">
          <mxGeometry relative="1" as="geometry">
            <mxPoint x="1455" y="406" as="targetPoint" />
          </mxGeometry>
        </mxCell>
        <mxCell id="VluUykrjsXQZkPM-GQT4-273" value="" style="ellipse;whiteSpace=wrap;html=1;aspect=fixed;" vertex="1" parent="1">
          <mxGeometry x="1345" y="391" width="30" height="30" as="geometry" />
        </mxCell>
        <mxCell id="VluUykrjsXQZkPM-GQT4-274" style="edgeStyle=none;rounded=1;jumpSize=20;orthogonalLoop=1;jettySize=auto;html=1;entryX=0;entryY=0.5;entryDx=0;entryDy=0;strokeWidth=1;" edge="1" parent="1" source="VluUykrjsXQZkPM-GQT4-276" target="VluUykrjsXQZkPM-GQT4-284">
          <mxGeometry relative="1" as="geometry" />
        </mxCell>
        <mxCell id="VluUykrjsXQZkPM-GQT4-275" style="edgeStyle=none;rounded=1;jumpSize=20;orthogonalLoop=1;jettySize=auto;html=1;strokeWidth=1;entryX=0;entryY=0.5;entryDx=0;entryDy=0;" edge="1" parent="1" source="VluUykrjsXQZkPM-GQT4-276" target="VluUykrjsXQZkPM-GQT4-285">
          <mxGeometry relative="1" as="geometry">
            <mxPoint x="1445" y="446.0000000000001" as="targetPoint" />
          </mxGeometry>
        </mxCell>
        <mxCell id="VluUykrjsXQZkPM-GQT4-276" value="" style="ellipse;whiteSpace=wrap;html=1;aspect=fixed;" vertex="1" parent="1">
          <mxGeometry x="1345" y="431" width="30" height="30" as="geometry" />
        </mxCell>
        <mxCell id="VluUykrjsXQZkPM-GQT4-277" style="edgeStyle=none;rounded=1;jumpSize=20;orthogonalLoop=1;jettySize=auto;html=1;strokeWidth=1;" edge="1" parent="1" source="VluUykrjsXQZkPM-GQT4-279">
          <mxGeometry relative="1" as="geometry">
            <mxPoint x="1455" y="446" as="targetPoint" />
          </mxGeometry>
        </mxCell>
        <mxCell id="VluUykrjsXQZkPM-GQT4-278" style="edgeStyle=none;rounded=1;jumpSize=20;orthogonalLoop=1;jettySize=auto;html=1;strokeWidth=1;entryX=0;entryY=0.5;entryDx=0;entryDy=0;" edge="1" parent="1" source="VluUykrjsXQZkPM-GQT4-279" target="VluUykrjsXQZkPM-GQT4-284">
          <mxGeometry relative="1" as="geometry">
            <mxPoint x="1445" y="406.0000000000001" as="targetPoint" />
          </mxGeometry>
        </mxCell>
        <mxCell id="VluUykrjsXQZkPM-GQT4-279" value="" style="ellipse;whiteSpace=wrap;html=1;aspect=fixed;" vertex="1" parent="1">
          <mxGeometry x="1345" y="471" width="30" height="30" as="geometry" />
        </mxCell>
        <mxCell id="VluUykrjsXQZkPM-GQT4-280" style="edgeStyle=none;rounded=1;jumpSize=20;orthogonalLoop=1;jettySize=auto;html=1;entryX=0;entryY=0.5;entryDx=0;entryDy=0;strokeWidth=1;" edge="1" parent="1" source="VluUykrjsXQZkPM-GQT4-282" target="VluUykrjsXQZkPM-GQT4-284">
          <mxGeometry relative="1" as="geometry" />
        </mxCell>
        <mxCell id="VluUykrjsXQZkPM-GQT4-281" style="edgeStyle=none;rounded=1;jumpSize=20;orthogonalLoop=1;jettySize=auto;html=1;strokeWidth=1;entryX=0;entryY=0.5;entryDx=0;entryDy=0;" edge="1" parent="1" source="VluUykrjsXQZkPM-GQT4-282" target="VluUykrjsXQZkPM-GQT4-285">
          <mxGeometry relative="1" as="geometry">
            <mxPoint x="1445" y="446.0000000000001" as="targetPoint" />
          </mxGeometry>
        </mxCell>
        <mxCell id="VluUykrjsXQZkPM-GQT4-282" value="" style="ellipse;whiteSpace=wrap;html=1;aspect=fixed;" vertex="1" parent="1">
          <mxGeometry x="1345" y="511" width="30" height="30" as="geometry" />
        </mxCell>
        <mxCell id="VluUykrjsXQZkPM-GQT4-283" value="&lt;div&gt;Output&lt;/div&gt;" style="text;html=1;strokeColor=none;fillColor=none;align=center;verticalAlign=middle;whiteSpace=wrap;rounded=0;" vertex="1" parent="1">
          <mxGeometry x="1345" y="556" width="250" height="20" as="geometry" />
        </mxCell>
        <mxCell id="VluUykrjsXQZkPM-GQT4-284" value="" style="ellipse;whiteSpace=wrap;html=1;aspect=fixed;fillColor=#dae8fc;strokeColor=#6c8ebf;" vertex="1" parent="1">
          <mxGeometry x="1451" y="391" width="30" height="30" as="geometry" />
        </mxCell>
        <mxCell id="VluUykrjsXQZkPM-GQT4-285" value="" style="ellipse;whiteSpace=wrap;html=1;aspect=fixed;fillColor=#d5e8d4;strokeColor=#82b366;" vertex="1" parent="1">
          <mxGeometry x="1451" y="431" width="30" height="30" as="geometry" />
        </mxCell>
      </root>
    </mxGraphModel>
  </diagram>
</mxfile>
